<?xml version="1.0" standalone="no"?>
<!DOCTYPE svg PUBLIC "-//W3C//DTD SVG 20010904//EN"
 "http://www.w3.org/TR/2001/REC-SVG-20010904/DTD/svg10.dtd">
<svg version="1.0" xmlns="http://www.w3.org/2000/svg"
 width="1173.584602pt" height="2720.237840pt" viewBox="0 0 1173.584602 2720.237840"
 preserveAspectRatio="xMidYMid meet">
<metadata>
Created by potrace 1.16, written by Peter Selinger 2001-2019
</metadata>
<g transform="translate(-917.120607,2898.888453) scale(0.100000,-0.100000)"
fill="#c7492d" stroke="none">
<path d="M10888 28967 c-45 -31 -146 -77 -168 -77 -9 0 -25 -9 -34 -19 -22
-25 -103 -51 -156 -51 -22 0 -58 -9 -80 -20 -22 -11 -55 -20 -74 -20 -19 0
-38 -5 -42 -11 -10 -17 -125 -65 -159 -67 -16 -1 -41 -6 -55 -11 -14 -5 -37
-12 -51 -15 -14 -3 -43 -19 -64 -36 -23 -18 -49 -30 -67 -30 -37 0 -123 -68
-132 -104 -3 -14 -25 -38 -49 -53 -38 -26 -42 -33 -47 -80 -3 -28 -13 -60 -23
-70 -9 -11 -17 -29 -17 -41 0 -30 -34 -62 -65 -62 -41 0 -85 -78 -85 -149 0
-57 -18 -100 -62 -148 -20 -22 -21 -72 -2 -176 5 -31 2 -45 -15 -68 -26 -35
-27 -73 -1 -106 11 -14 20 -38 20 -54 0 -16 8 -42 19 -60 14 -23 17 -37 10
-57 -5 -15 -11 -39 -14 -54 -3 -18 -17 -33 -36 -43 -17 -9 -35 -29 -40 -45 -6
-16 -21 -36 -35 -45 -18 -12 -24 -23 -22 -46 2 -24 -4 -36 -25 -51 -22 -16
-27 -27 -27 -64 0 -25 -5 -54 -11 -65 -8 -16 -5 -26 20 -54 l29 -34 -19 -51
c-22 -58 -24 -101 -7 -118 7 -7 11 -27 10 -45 -1 -19 7 -54 18 -80 15 -33 19
-57 14 -85 -5 -32 -2 -46 15 -69 21 -27 21 -31 6 -65 -11 -27 -12 -44 -5 -63
5 -14 7 -38 4 -55 -8 -35 9 -60 36 -55 22 4 60 -23 64 -45 1 -8 8 -25 14 -37
24 -44 -18 -84 -57 -56 -20 14 -24 13 -42 -3 -24 -22 -24 -28 2 -63 22 -31 16
-62 -15 -74 -28 -11 -51 -61 -59 -126 -19 -154 -19 -178 -3 -209 20 -39 22
-32 -18 -83 -26 -32 -32 -47 -26 -60 14 -25 15 -82 2 -106 -7 -12 -12 -55 -12
-95 0 -69 2 -75 30 -100 22 -19 30 -36 31 -60 1 -53 6 -69 30 -94 24 -26 33
-111 18 -174 -11 -46 -71 -110 -101 -110 -40 0 -48 -18 -48 -110 0 -96 7 -110
57 -110 35 0 73 -29 73 -56 0 -23 -46 -97 -70 -112 -35 -21 -28 -86 15 -133
32 -35 34 -43 29 -83 -4 -29 -1 -61 11 -95 19 -58 14 -85 -21 -108 -14 -9 -31
-28 -39 -43 -19 -37 -15 -148 7 -179 12 -17 14 -29 8 -42 -6 -10 -10 -34 -10
-54 0 -20 -9 -53 -20 -75 -26 -51 -25 -83 4 -126 25 -38 27 -90 4 -167 -8 -28
-8 -44 1 -63 9 -20 9 -34 0 -58 -10 -27 -9 -41 5 -77 13 -37 14 -53 5 -99 -20
-100 -22 -186 -5 -212 14 -21 14 -27 1 -44 -19 -26 -19 -58 2 -75 22 -19 54
-94 48 -111 -3 -8 -8 -57 -10 -109 -2 -52 -7 -119 -10 -150 -6 -43 -4 -62 9
-81 14 -21 14 -27 1 -44 -20 -27 -19 -42 9 -75 l25 -29 -25 -55 c-15 -35 -24
-74 -24 -106 0 -55 -18 -99 -58 -142 -24 -25 -25 -30 -14 -60 7 -19 12 -60 12
-93 0 -67 16 -98 55 -108 37 -9 61 -68 44 -107 -11 -28 -9 -31 40 -77 69 -65
68 -84 -9 -141 -22 -17 -23 -21 -12 -46 11 -25 10 -29 -23 -58 -32 -28 -35
-36 -35 -83 0 -30 -9 -73 -22 -104 -18 -44 -20 -56 -10 -84 15 -41 15 -114 0
-169 -14 -55 -6 -85 35 -135 25 -30 33 -48 30 -69 -2 -15 -8 -64 -13 -108 -5
-44 -12 -103 -16 -131 -5 -47 -3 -53 30 -93 42 -51 45 -79 11 -119 -14 -17
-25 -40 -25 -51 0 -12 -9 -39 -20 -61 -25 -50 -28 -166 -4 -212 13 -25 14 -35
4 -57 -33 -68 -39 -152 -25 -319 6 -65 10 -75 35 -94 44 -32 54 -71 30 -116
-25 -46 -25 -69 -1 -105 l19 -29 -41 -77 -41 -77 16 -50 c15 -48 15 -50 -10
-93 -21 -36 -24 -48 -15 -71 6 -17 7 -34 1 -44 -5 -9 -6 -26 -2 -38 9 -28 93
-114 122 -122 28 -9 44 -37 31 -57 -24 -39 10 -97 51 -86 25 6 60 -24 60 -52
0 -10 -9 -30 -20 -44 -11 -14 -20 -34 -20 -45 0 -10 -8 -30 -18 -43 -10 -13
-23 -36 -30 -52 -8 -18 -22 -29 -42 -33 -42 -9 -52 -25 -56 -96 -4 -67 -14
-121 -31 -153 -53 -106 -55 -112 -50 -182 5 -74 20 -160 30 -169 3 -3 -3 -25
-13 -48 -11 -28 -15 -48 -9 -57 5 -8 9 -74 9 -148 l0 -133 30 -34 c33 -38 31
-57 -11 -116 -14 -19 -22 -46 -23 -79 -1 -45 2 -52 37 -84 43 -39 42 -36 21
-77 -11 -21 -14 -45 -10 -78 4 -33 1 -52 -9 -66 -8 -10 -15 -31 -15 -46 0 -14
-9 -47 -20 -73 -11 -26 -20 -68 -20 -95 0 -27 -9 -69 -20 -95 l-20 -46 31 -67
c24 -54 28 -71 19 -90 -15 -33 -12 -58 7 -73 29 -24 65 -117 53 -139 -8 -15
-4 -28 22 -64 38 -55 30 -92 -22 -103 -37 -7 -43 -16 -46 -68 -2 -50 -31 -140
-50 -156 -25 -21 -18 -104 13 -151 33 -50 46 -124 45 -268 -1 -105 -15 -311
-28 -405 -6 -45 -4 -51 21 -70 48 -39 51 -91 10 -174 -47 -95 -48 -158 -5
-208 30 -34 35 -51 31 -110 -2 -18 4 -42 13 -55 8 -12 13 -31 10 -43 -3 -12 2
-39 10 -60 9 -21 16 -60 16 -87 0 -27 5 -58 10 -68 13 -25 -19 -60 -54 -60
-43 0 -57 -43 -32 -101 5 -11 -5 -31 -32 -61 -64 -75 -71 -101 -35 -146 47
-59 47 -60 19 -102 -17 -26 -26 -53 -26 -78 0 -24 -8 -49 -20 -65 -28 -35 -25
-64 10 -104 16 -18 30 -41 30 -49 0 -9 10 -29 23 -44 33 -38 24 -126 -16 -168
-36 -37 -32 -69 17 -161 17 -33 17 -34 -3 -62 -26 -35 -27 -64 -1 -96 11 -14
17 -30 13 -36 -8 -13 -22 -81 -30 -143 -3 -30 1 -52 15 -80 15 -30 18 -44 10
-58 -5 -10 -7 -34 -4 -54 28 -182 36 -223 51 -247 17 -28 11 -91 -14 -149 -24
-55 -30 -160 -12 -195 6 -11 11 -47 10 -80 -2 -57 1 -63 35 -101 48 -53 48
-89 2 -133 -32 -30 -34 -37 -41 -117 -3 -47 -6 -92 -5 -100 11 -154 7 -183
-32 -227 -17 -18 -19 -30 -14 -75 10 -83 8 -97 -20 -235 -5 -29 -1 -37 35 -73
23 -23 39 -45 36 -50 -26 -41 -52 -145 -50 -192 5 -82 16 -141 31 -162 8 -13
11 -34 7 -61 -3 -25 0 -51 7 -64 10 -19 8 -32 -11 -78 l-22 -54 21 -38 c14
-25 18 -41 11 -51 -5 -8 -9 -37 -8 -65 0 -27 -4 -63 -10 -80 -63 -176 -67
-232 -21 -267 42 -31 45 -50 14 -118 -19 -44 -24 -67 -19 -87 4 -15 10 -66 12
-113 4 -76 8 -88 34 -117 27 -31 29 -39 29 -117 0 -66 -4 -88 -19 -107 -34
-44 -39 -119 -26 -398 6 -114 5 -127 -14 -152 -16 -21 -20 -41 -19 -91 0 -35
-4 -74 -11 -85 -17 -33 -13 -60 15 -103 27 -40 27 -40 9 -85 l-17 -46 35 -38
c32 -35 34 -42 30 -88 -3 -31 1 -67 11 -98 10 -28 14 -60 11 -76 -4 -18 -1
-36 9 -50 18 -27 10 -47 -41 -101 -30 -30 -34 -41 -29 -65 4 -15 6 -32 6 -38
-14 -151 -8 -176 54 -215 19 -11 37 -29 40 -38 15 -55 16 -79 2 -97 -23 -31
-19 -58 14 -87 26 -23 30 -33 30 -79 0 -49 3 -57 42 -96 36 -37 42 -48 40 -81
-3 -42 15 -65 58 -75 26 -6 69 -45 150 -136 25 -28 53 -53 62 -56 9 -3 26 -21
37 -40 20 -35 21 -35 91 -35 77 0 80 -2 139 -80 22 -29 28 -31 60 -25 124 23
204 -2 307 -98 28 -26 34 -27 55 -16 20 10 111 17 254 18 110 2 265 -15 281
-30 16 -14 43 -17 151 -17 75 0 140 -5 151 -11 27 -14 117 -14 145 0 12 7 37
25 55 40 50 44 84 34 195 -52 23 -18 37 -21 76 -16 37 4 54 1 77 -14 49 -33
138 -24 193 18 28 21 51 31 60 27 9 -3 31 -10 49 -14 19 -5 44 -18 56 -29 30
-28 57 -26 113 8 44 27 49 28 75 15 45 -23 299 -7 343 22 18 12 24 12 41 -1
28 -21 90 -19 123 6 24 18 32 19 51 9 16 -8 45 -10 89 -6 231 23 286 24 310 9
19 -12 31 -13 60 -5 79 24 103 26 294 25 108 -1 212 -2 230 -3 35 -1 131 12
217 31 61 13 166 15 222 4 20 -4 44 -3 54 3 18 10 75 -8 104 -33 11 -10 59
-14 185 -15 167 0 217 -3 323 -16 33 -4 64 -1 81 6 24 10 35 8 70 -9 45 -23
73 -26 102 -10 16 8 28 6 55 -10 41 -25 69 -26 116 -7 23 10 53 13 94 9 34 -3
69 -1 80 5 14 7 25 7 39 0 22 -13 169 -12 194 1 10 6 47 11 84 13 57 2 69 0
90 -20 25 -24 62 -28 99 -11 18 8 34 6 70 -10 30 -13 62 -18 94 -16 98 6 170
18 197 32 15 8 32 11 37 8 4 -3 19 0 33 6 18 8 35 7 70 -5 54 -18 70 -14 114
27 19 18 45 32 62 33 16 1 34 5 39 8 5 3 21 -3 35 -14 31 -24 94 -26 156 -4
39 13 46 13 66 0 13 -9 50 -16 85 -17 42 -1 68 -8 85 -21 41 -32 86 -23 168
32 41 28 81 50 91 50 27 0 72 -27 89 -53 12 -19 28 -26 64 -30 26 -3 65 -9 86
-13 21 -3 49 -1 65 5 46 19 73 21 114 6 36 -12 45 -11 82 5 31 13 47 15 60 8
33 -19 365 -25 476 -9 41 6 80 11 85 11 6 1 28 -4 50 -11 68 -20 293 -10 333
15 9 5 24 1 43 -13 35 -26 54 -26 86 -1 14 11 32 20 40 20 7 0 27 10 43 22
l30 22 30 -22 c40 -30 59 -28 143 15 56 29 88 39 142 43 66 5 71 7 93 40 13
19 35 41 50 49 15 8 40 25 55 37 16 13 35 24 44 24 8 0 26 9 40 20 14 11 35
20 46 20 11 0 37 19 58 41 34 36 42 41 71 36 18 -4 56 -10 83 -15 28 -4 61
-15 75 -22 41 -24 71 -21 114 10 22 17 45 30 51 30 7 0 20 9 30 20 17 19 17
31 0 102 -8 32 23 68 58 68 13 0 34 11 47 25 13 14 20 25 16 25 -3 0 0 13 8
28 10 19 11 33 5 45 -6 10 -8 50 -6 89 5 82 21 105 63 86 33 -15 55 6 94 91
25 53 29 70 21 89 -16 35 -13 79 8 120 29 56 44 114 38 155 -3 27 1 45 20 72
14 20 23 45 20 55 -3 10 2 28 10 40 10 14 13 32 9 53 -7 37 -7 36 -2 102 2 28
9 62 16 76 9 21 9 31 0 49 -10 19 -9 27 9 51 22 30 30 139 12 168 -5 7 -4 25
2 41 12 31 0 81 -36 154 -15 31 -17 51 -12 105 3 36 8 111 10 166 2 55 6 118
10 140 9 54 8 107 -2 185 -9 60 -4 148 12 227 5 20 0 51 -14 90 -12 33 -21 69
-21 81 0 13 -13 48 -28 80 -25 51 -27 60 -16 92 6 19 10 46 7 59 -2 14 1 37 8
53 9 22 9 35 0 54 -8 17 -8 31 -1 44 21 39 16 123 -8 155 -26 35 -33 155 -12
195 7 13 9 38 6 59 -4 20 -8 65 -11 101 -2 35 -9 77 -16 92 -7 16 -8 43 -4 65
14 75 17 214 5 228 -6 7 -13 26 -15 42 -4 34 -19 70 -41 100 -16 22 -15 24 15
50 22 20 31 36 31 59 0 17 8 42 19 55 19 24 23 94 7 129 -3 8 3 39 13 68 13
36 17 61 11 75 -4 12 -14 42 -21 67 -7 25 -19 54 -26 66 -7 11 -10 23 -7 27 3
3 6 37 5 75 0 55 4 75 19 95 27 34 25 71 -5 114 -13 20 -21 41 -18 47 4 5 6
39 5 74 -2 57 2 72 38 141 43 83 47 106 25 135 -12 16 -12 22 0 47 32 62 12
196 -36 241 -13 13 -31 42 -38 66 -13 40 -13 46 10 94 17 36 23 65 21 98 -1
30 5 64 17 92 27 65 28 190 1 225 -31 40 -27 95 11 138 27 31 30 40 24 73 -4
20 -9 82 -12 137 -2 55 -9 105 -15 112 -15 18 -20 55 -27 198 -4 93 -11 142
-24 170 -19 42 -20 36 13 150 5 17 9 49 9 72 0 24 3 48 7 55 4 7 11 30 15 53
4 22 13 58 20 80 6 22 11 59 10 83 -1 39 -3 142 -2 195 1 147 -16 306 -38 352
-22 45 -37 117 -44 215 -2 19 -11 49 -20 67 -30 57 -23 124 19 174 34 40 35
46 29 93 -7 60 -8 207 -1 291 11 121 9 220 -2 242 -11 20 -6 37 38 132 59 130
57 115 21 196 -16 35 -26 66 -23 70 4 3 10 36 15 73 4 37 10 88 13 113 4 29 0
63 -9 90 -13 38 -14 47 -1 66 22 36 18 110 -11 158 -22 39 -23 44 -9 64 11 15
14 34 10 59 -3 20 -6 42 -5 47 3 77 10 127 20 158 10 31 10 43 -3 70 -12 26
-13 50 -5 132 8 90 11 244 6 358 -1 23 2 54 6 69 6 23 2 34 -24 63 -38 43 -39
28 9 124 34 68 39 85 29 102 -6 12 -8 31 -4 43 3 11 8 58 12 104 5 81 5 82
-27 118 -23 27 -30 42 -25 58 4 11 10 37 14 56 4 20 20 56 34 81 33 57 33 56
-3 110 -21 32 -30 56 -30 87 0 23 -9 61 -21 84 -21 41 -15 88 11 88 14 0 50
60 50 84 0 10 -13 34 -30 53 -16 18 -30 43 -30 54 0 11 -9 37 -20 59 -22 44
-19 62 16 85 22 14 24 21 24 106 0 70 4 98 20 129 22 43 26 91 9 122 -8 14 -7
28 2 50 10 25 10 34 -3 56 -14 24 -14 32 -2 69 11 33 12 48 3 64 -7 13 -11 62
-10 120 l2 98 -51 103 c-43 89 -49 108 -41 133 5 17 14 46 20 66 14 46 14 82
-1 114 -10 22 -7 30 21 70 l32 45 -2 121 c-1 77 3 125 10 132 15 15 14 43 -3
70 -17 27 -15 132 3 166 8 15 10 36 6 60 -9 44 -9 159 0 227 6 41 3 57 -14 85
-26 42 -26 60 -1 109 11 22 20 55 20 74 0 19 5 47 12 61 13 30 -2 66 -52 120
-31 33 -60 86 -60 108 0 8 9 26 21 41 13 16 22 44 23 69 2 27 12 56 29 81 18
25 27 52 27 77 0 21 5 49 11 62 8 17 8 30 1 43 -8 14 -5 28 9 56 11 22 19 58
19 90 0 29 3 80 5 113 5 58 7 142 4 208 0 17 2 67 6 110 6 69 4 80 -14 103
-35 44 -30 143 9 187 35 41 37 60 10 94 -33 42 -28 173 9 260 53 124 57 148
37 201 -10 26 -17 52 -16 57 1 6 4 43 6 83 5 70 5 74 -25 108 -25 28 -29 39
-21 54 15 29 12 65 -9 102 -11 18 -22 44 -25 58 -3 14 -8 35 -12 48 -5 19 3
31 45 70 48 44 51 50 51 96 0 41 -5 55 -27 78 -21 22 -29 43 -35 91 -18 150
-31 188 -92 257 -29 32 -31 40 -30 103 1 55 6 73 23 91 11 12 21 30 21 39 0 9
13 31 29 49 44 51 66 175 37 206 -35 40 -44 94 -22 134 19 33 19 40 7 70 -7
18 -13 41 -12 51 9 98 1 156 -23 173 -11 8 -27 29 -36 46 -8 18 -29 39 -45 47
-17 7 -42 25 -56 38 -29 27 -43 24 -98 -18 -35 -28 -78 -17 -85 21 -2 8 -6 27
-10 42 -4 14 -3 35 2 45 6 11 7 25 1 35 -6 11 -3 24 12 42 13 16 18 33 14 45
-9 31 27 61 74 61 52 0 69 20 53 64 -15 40 -9 59 24 81 33 22 35 111 2 155
l-22 30 21 28 c11 15 35 32 53 38 38 13 60 38 60 71 0 12 14 38 30 56 17 19
30 43 30 53 0 11 4 26 9 33 6 9 6 22 1 32 -7 12 -4 24 10 42 11 14 20 36 20
50 0 13 6 40 14 58 16 39 11 83 -15 119 -36 50 -35 77 4 113 64 60 70 91 31
160 -37 67 -45 102 -28 124 30 40 15 149 -29 215 -29 42 -11 215 27 257 22 25
20 76 -5 110 -22 30 -22 26 -3 164 5 36 1 49 -25 87 -22 33 -31 57 -31 88 0
24 -4 51 -9 60 -5 10 -10 40 -12 67 -1 29 -10 60 -21 74 -14 19 -18 40 -17
100 l1 76 -58 53 c-55 50 -58 54 -55 97 2 56 -18 97 -64 125 -19 12 -40 30
-45 41 -6 10 -23 25 -38 33 -23 12 -49 53 -92 146 -4 9 -22 15 -44 16 -31 1
-44 9 -85 55 l-49 54 -31 -18 c-36 -21 -28 -24 -121 48 -67 52 -95 48 -158
-21 -51 -55 -51 -55 -80 -40 -32 17 -42 34 -42 73 0 69 -81 111 -115 59 -23
-34 -40 -38 -70 -14 -20 15 -35 19 -61 15 -27 -5 -40 -1 -63 19 -33 28 -92 32
-111 8 -28 -33 -47 -35 -78 -9 -26 22 -31 23 -50 9 -20 -14 -21 -17 -6 -39 14
-22 14 -25 -5 -44 -26 -26 -36 -26 -61 -1 -27 27 -25 36 10 68 21 20 27 31 20
42 -5 8 -10 27 -10 42 0 23 -13 37 -77 82 -81 57 -100 64 -135 45 -16 -9 -26
-7 -50 11 -25 18 -38 21 -76 15 -26 -3 -78 -8 -117 -11 -38 -3 -84 -12 -102
-21 -31 -16 -33 -16 -73 11 -31 20 -49 26 -69 22 -30 -8 -28 -8 -107 0 -56 6
-62 4 -80 -19 -11 -13 -41 -43 -68 -66 -45 -39 -50 -41 -116 -41 -58 0 -73 4
-98 25 -50 42 -150 23 -208 -41 -33 -35 -35 -36 -56 -20 -74 53 -82 57 -130
51 -27 -3 -72 -8 -100 -11 -41 -5 -59 -12 -80 -35 -37 -40 -140 -44 -191 -8
l-28 20 -35 -30 c-28 -25 -39 -29 -54 -21 -27 15 -77 12 -110 -5 -28 -14 -31
-14 -62 13 -65 55 -87 64 -137 58 -65 -8 -62 -8 -107 2 -22 5 -59 19 -82 32
-34 19 -46 21 -65 13 -18 -8 -38 -7 -83 5 -60 16 -139 18 -311 7 -77 -4 -101
-2 -145 15 -71 27 -139 27 -164 -1 -29 -32 -72 -51 -102 -45 -15 3 -38 -1 -52
-8 -23 -13 -29 -12 -71 12 -45 25 -48 25 -73 9 -14 -10 -33 -30 -43 -45 -39
-63 -71 -67 -116 -16 -46 52 -117 86 -165 78 -33 -5 -44 -2 -73 23 -68 58
-110 57 -158 -1 -8 -10 -32 -26 -52 -37 l-38 -19 -31 27 c-27 22 -42 26 -103
28 -40 2 -84 6 -99 10 -20 5 -35 1 -64 -19 -29 -19 -41 -23 -56 -15 -11 6 -33
7 -50 4 -55 -12 -100 -7 -129 14 -43 32 -71 27 -127 -24 -55 -50 -116 -80
-135 -68 -7 4 -37 27 -67 50 -44 33 -63 41 -95 41 -22 -1 -62 2 -90 7 -27 5
-66 8 -85 7 -130 -6 -168 -10 -186 -19 -10 -6 -43 -11 -72 -12 -37 -1 -63 -9
-89 -27 -41 -28 -85 -31 -137 -9 -30 13 -44 13 -74 4 -75 -22 -128 -21 -159 5
-41 35 -214 49 -323 28 -45 -10 -58 -9 -77 3 -35 24 -117 19 -175 -10 -27 -14
-54 -25 -60 -25 -6 0 -26 -13 -45 -30 -18 -16 -43 -30 -54 -30 -12 0 -32 -9
-46 -20 -27 -21 -27 -21 -113 29 -52 30 -249 43 -293 20 -15 -9 -26 -6 -49 11
-23 17 -38 20 -61 15 -18 -3 -41 -6 -52 -6 -11 0 -34 3 -52 6 -23 5 -38 2 -61
-15 -24 -18 -34 -20 -50 -11 -28 15 -63 13 -85 -3 -16 -13 -26 -11 -77 15 -32
16 -62 33 -65 39 -3 5 -15 10 -27 10 -11 0 -37 9 -57 19 -84 44 -148 63 -171
51 -19 -10 -27 -9 -51 9 -37 27 -68 27 -111 -2z m5992 -597 c11 -11 20 -28 20
-38 0 -34 115 -117 141 -101 7 5 27 9 42 9 16 0 37 5 48 11 16 8 29 4 66 -20
29 -19 59 -31 80 -31 19 0 52 -9 74 -20 36 -19 53 -20 192 -16 84 2 179 9 212
15 49 8 64 7 82 -5 37 -23 203 -19 247 7 l35 20 53 -27 c44 -23 69 -28 148
-32 72 -3 104 -9 132 -24 25 -14 45 -19 67 -14 17 3 44 9 60 12 22 5 36 -1 63
-25 40 -35 65 -38 109 -16 27 14 32 14 59 -1 40 -24 97 -5 144 48 30 33 38 37
56 28 20 -10 24 -21 21 -48 -3 -18 18 -42 36 -42 8 0 51 -16 96 -36 57 -25 93
-35 121 -33 112 6 147 0 174 -31 21 -24 35 -30 65 -30 39 0 83 -18 126 -52 14
-10 43 -27 67 -37 26 -12 45 -28 49 -42 4 -13 22 -38 40 -55 30 -28 33 -36 28
-71 -3 -26 0 -50 11 -71 9 -17 16 -54 16 -82 0 -28 4 -59 10 -69 7 -14 2 -28
-22 -60 -48 -66 -33 -145 28 -147 33 -1 79 -27 88 -49 3 -8 1 -27 -4 -44 -9
-31 -3 -66 25 -145 21 -62 26 -82 32 -131 4 -33 15 -49 60 -91 48 -45 53 -54
44 -72 -14 -26 -14 -69 -1 -77 6 -3 17 -19 25 -35 14 -27 13 -30 -10 -58 -32
-38 -31 -48 3 -69 42 -26 53 -43 41 -65 -6 -12 -6 -24 0 -35 6 -11 6 -24 -1
-36 -9 -18 -7 -85 8 -189 5 -42 2 -53 -25 -95 -37 -56 -37 -55 -6 -101 31 -46
31 -53 -1 -91 -26 -32 -28 -48 -9 -121 5 -19 -1 -35 -25 -65 -27 -34 -31 -46
-26 -77 3 -20 1 -71 -5 -113 -8 -58 -7 -85 1 -106 11 -25 9 -33 -17 -72 -52
-79 -60 -121 -34 -168 l23 -40 -22 -55 c-19 -45 -21 -60 -11 -80 6 -14 11 -77
11 -145 0 -100 3 -126 20 -159 25 -49 26 -43 -11 -85 -26 -30 -30 -41 -25 -70
3 -19 9 -52 12 -72 4 -21 20 -57 37 -80 27 -38 29 -46 19 -68 -16 -35 -15 -76
3 -99 23 -30 18 -59 -15 -101 -38 -48 -44 -71 -36 -143 8 -70 8 -61 0 -154
l-7 -78 34 -37 c33 -37 42 -55 68 -135 16 -50 -8 -100 -66 -134 -58 -33 -73
-72 -73 -186 0 -69 4 -97 20 -129 16 -31 18 -44 10 -60 -11 -19 -10 -45 4
-237 3 -43 10 -60 34 -85 17 -18 38 -51 47 -74 16 -41 16 -42 -9 -85 -14 -24
-34 -49 -46 -56 -33 -20 -28 -84 9 -114 72 -58 84 -169 26 -238 -44 -52 -44
-74 0 -129 36 -45 36 -61 1 -91 -9 -7 -16 -20 -16 -30 0 -9 -9 -29 -21 -44
-24 -31 -23 -64 7 -138 18 -47 18 -48 -4 -93 -26 -54 -28 -83 -6 -128 15 -31
14 -36 -7 -92 -12 -33 -21 -69 -20 -80 1 -11 4 -58 7 -105 5 -72 10 -90 32
-120 56 -73 55 -299 -1 -358 -42 -44 -29 -118 34 -190 39 -44 36 -65 -16 -122
-12 -14 -25 -38 -28 -55 -3 -16 -10 -48 -16 -70 -24 -83 -23 -87 7 -119 42
-44 52 -68 52 -121 0 -25 4 -55 10 -65 7 -13 4 -24 -11 -44 -26 -33 -28 -111
-5 -180 17 -48 16 -50 -4 -78 -18 -24 -19 -34 -11 -61 31 -97 31 -98 16 -127
-19 -37 -19 -114 -1 -143 17 -27 7 -108 -16 -134 -47 -54 -44 -101 12 -173 23
-30 31 -70 37 -171 l4 -75 -44 -55 c-42 -51 -43 -56 -29 -77 14 -21 12 -24
-22 -55 -34 -32 -36 -37 -36 -98 0 -55 5 -71 34 -119 44 -72 62 -169 40 -211
-15 -30 -21 -141 -9 -179 4 -13 0 -31 -10 -47 -17 -26 -17 -30 6 -128 15 -66
15 -121 -1 -170 -24 -75 -24 -138 0 -185 17 -33 21 -54 16 -94 -10 -101 -22
-162 -40 -195 -14 -26 -16 -46 -12 -90 10 -88 9 -103 -4 -146 -7 -22 -12 -50
-11 -62 1 -13 1 -33 0 -45 -11 -332 -10 -387 11 -427 11 -22 20 -51 20 -64 0
-14 7 -30 16 -37 36 -31 37 -49 1 -83 -55 -51 -72 -158 -37 -227 16 -31 20
-51 15 -74 -18 -81 -17 -156 3 -211 20 -55 20 -55 0 -80 -16 -21 -19 -34 -14
-68 4 -23 10 -76 14 -117 4 -41 16 -90 26 -109 13 -25 16 -45 12 -80 -20 -144
-27 -223 -27 -283 1 -99 1 -150 0 -223 0 -36 0 -73 0 -82 0 -10 -2 -47 -5 -83
-4 -52 -1 -75 15 -113 28 -65 29 -174 2 -226 -38 -73 -42 -109 -39 -331 2
-122 8 -228 15 -246 8 -23 7 -40 -3 -70 -16 -47 -13 -62 32 -115 25 -30 32
-45 25 -57 -5 -10 -9 -64 -9 -122 -1 -93 1 -107 20 -127 20 -21 27 -48 46
-163 4 -25 11 -51 15 -57 13 -21 -42 -113 -106 -176 -41 -42 -46 -72 -22 -129
12 -31 12 -38 0 -54 -11 -14 -14 -51 -15 -138 l0 -119 35 -38 35 -39 -35 -63
c-51 -93 -49 -132 11 -185 28 -26 43 -47 38 -54 -4 -7 -16 -25 -26 -40 -24
-34 -23 -79 2 -129 16 -30 18 -44 10 -58 -14 -27 -13 -57 3 -84 11 -17 12 -45
7 -117 -4 -52 -5 -106 -3 -120 3 -16 -10 -53 -36 -105 -49 -95 -49 -94 -11
-205 34 -98 33 -108 -16 -145 -31 -24 -34 -30 -34 -81 0 -34 6 -64 17 -80 15
-24 15 -28 0 -57 -12 -24 -16 -60 -17 -145 0 -63 -3 -119 -7 -125 -4 -7 -11
-39 -16 -72 -4 -33 -10 -77 -13 -98 -5 -32 -2 -43 19 -65 43 -46 51 -70 33
-97 -13 -19 -16 -53 -16 -156 0 -80 -5 -146 -12 -166 -11 -31 -10 -39 16 -87
l28 -52 -36 -72 c-42 -83 -45 -123 -16 -202 11 -30 20 -70 20 -88 0 -22 9 -45
25 -64 l25 -29 -26 -45 c-23 -39 -25 -51 -20 -116 8 -108 8 -146 -5 -218 -6
-36 -11 -102 -10 -147 0 -46 0 -101 0 -123 0 -106 0 -264 0 -297 1 -21 -2 -76
-5 -122 -6 -90 2 -125 43 -174 l23 -28 -25 -43 c-38 -65 -37 -67 40 -173 16
-20 15 -26 -5 -84 -28 -78 -17 -121 47 -191 38 -42 42 -51 32 -69 -6 -13 -9
-44 -7 -71 5 -46 3 -53 -28 -83 -18 -18 -38 -51 -43 -73 -7 -26 -23 -49 -46
-66 -23 -18 -35 -35 -35 -51 0 -13 -14 -40 -31 -60 -28 -32 -30 -39 -25 -82
18 -138 -8 -213 -73 -213 -18 0 -47 -20 -94 -66 l-69 -66 3 -56 c1 -31 1 -69
1 -84 -3 -37 -83 -118 -118 -118 -14 0 -37 -9 -51 -20 -14 -11 -31 -20 -37
-20 -7 0 -27 -11 -46 -25 -19 -14 -42 -25 -52 -25 -10 0 -25 -11 -34 -25 -9
-13 -26 -27 -37 -31 -12 -4 -37 -20 -56 -36 -31 -27 -38 -29 -90 -24 -31 3
-60 5 -66 6 -5 0 -22 -2 -36 -6 -21 -4 -34 1 -63 26 -32 29 -41 31 -83 27 -70
-7 -105 -18 -132 -38 -17 -14 -28 -16 -41 -9 -10 6 -38 10 -61 10 -23 0 -57 5
-76 12 -29 10 -38 9 -74 -12 -37 -20 -46 -22 -75 -11 -19 7 -38 10 -43 6 -17
-10 -91 27 -112 56 -20 28 -23 29 -108 29 -87 0 -87 0 -122 -36 -57 -60 -138
-85 -189 -59 -78 39 -301 50 -367 17 -29 -14 -33 -14 -57 1 -21 14 -51 17
-173 17 -147 -1 -148 -1 -186 -29 -34 -26 -41 -28 -67 -18 -24 9 -35 8 -57 -4
-18 -10 -43 -14 -70 -11 -35 3 -48 -1 -74 -22 -34 -29 -43 -27 -82 19 -14 17
-41 39 -61 49 -37 20 -37 20 -99 -4 -78 -29 -119 -29 -157 -2 -16 12 -39 22
-50 22 -11 0 -38 9 -60 20 -64 33 -170 25 -246 -17 -17 -10 -25 -9 -43 3 -16
12 -35 14 -74 9 -29 -3 -95 -8 -147 -11 -52 -3 -101 -10 -108 -17 -8 -7 -53
-10 -117 -9 -61 1 -106 -2 -110 -8 -19 -30 -44 -30 -80 1 -31 28 -40 30 -78
25 -54 -8 -74 -8 -119 0 -20 3 -44 2 -53 -4 -12 -6 -34 -3 -72 10 -54 20 -138
21 -206 3 -22 -6 -36 -2 -59 15 -24 17 -38 21 -71 16 -23 -3 -48 -5 -54 -5
-100 5 -254 -13 -286 -35 -22 -15 -32 -16 -55 -8 -15 6 -118 11 -240 11 -200
1 -216 -1 -255 -21 -73 -38 -95 -48 -101 -48 -4 0 -29 21 -56 46 l-48 45 -64
-5 c-35 -2 -74 -9 -88 -14 -19 -7 -35 -6 -59 4 -66 28 -118 15 -188 -48 -52
-47 -63 -47 -107 -3 -41 41 -70 49 -140 42 -34 -3 -60 0 -76 9 -14 7 -52 14
-85 14 -50 0 -68 6 -104 30 -58 39 -173 44 -220 9 -27 -20 -40 -21 -220 -20
-181 2 -192 1 -220 -20 -23 -17 -36 -20 -58 -14 -15 5 -32 7 -36 7 -4 -1 -18
3 -30 10 -12 7 -75 16 -142 19 -66 4 -132 10 -147 14 -23 6 -33 1 -68 -34 -56
-56 -83 -53 -124 12 -19 31 -19 31 -239 11 -57 -5 -73 -3 -103 15 -20 12 -40
18 -46 15 -6 -4 -24 -10 -42 -14 -17 -4 -38 -11 -47 -15 -12 -4 -28 5 -54 30
-60 61 -153 97 -239 94 -71 -3 -74 -2 -118 34 -51 42 -59 55 -52 84 7 24 -8
36 -66 52 -78 23 -89 29 -95 58 -11 52 -30 69 -100 90 -23 6 -33 18 -43 48 -7
22 -24 52 -38 66 -33 34 -56 110 -55 182 0 51 -4 64 -35 105 -70 95 -96 123
-133 142 -64 32 -70 86 -15 151 56 67 67 94 60 153 -14 112 -25 222 -25 234 1
18 0 118 -1 150 -1 15 2 51 5 79 7 49 6 55 -24 88 -33 38 -38 60 -19 100 9 21
8 32 -5 59 -14 29 -14 36 -2 52 23 30 17 57 -16 86 -25 23 -28 30 -20 47 6 11
11 54 11 95 0 41 5 87 12 101 10 21 8 32 -11 65 l-22 39 31 34 c33 39 41 98
16 126 -22 24 -43 95 -36 117 28 78 29 86 15 108 -18 28 -6 137 19 165 14 16
17 28 11 53 -19 83 -3 266 28 325 24 45 22 117 -4 152 -15 21 -19 34 -12 47
20 42 15 93 -17 155 -29 57 -30 63 -15 83 63 85 65 90 65 137 0 30 -7 60 -19
80 -20 32 -20 33 0 70 34 67 25 137 -29 221 -18 27 -21 41 -14 54 7 13 6 24
-4 39 -15 23 -9 55 28 132 14 29 18 52 14 75 -3 18 -6 39 -5 46 10 87 -5 288
-24 318 -4 7 1 22 11 35 48 64 60 208 22 256 -22 28 -25 60 -10 95 8 17 7 40
-5 88 -9 36 -20 81 -24 100 -5 19 -15 52 -24 72 -15 35 -15 38 5 63 13 16 21
43 22 75 2 30 9 57 19 68 23 25 21 51 -5 79 -25 27 -34 143 -14 178 7 11 18
39 26 62 13 42 13 43 -23 82 -34 37 -36 43 -30 89 4 33 1 57 -10 78 -13 25
-13 33 -1 54 7 14 13 32 14 40 0 8 16 38 36 65 78 109 81 149 19 216 -52 56
-53 60 -20 118 27 47 31 86 14 125 -10 21 -8 35 10 77 15 36 21 73 21 122 l0
71 -46 42 -45 42 20 38 c12 21 21 50 21 64 0 14 7 36 16 48 12 18 14 41 9 130
-8 144 -8 292 0 374 6 59 4 71 -14 94 -24 31 -26 54 -7 108 15 44 11 156 -8
196 -12 25 -6 174 9 232 5 19 1 34 -15 56 -20 27 -22 42 -22 143 0 97 -2 115
-20 139 -21 29 -20 41 13 128 5 13 9 49 9 81 0 40 5 66 18 82 32 43 42 79 42
155 0 84 -8 105 -56 150 -31 29 -33 33 -23 65 6 19 12 83 14 144 l4 109 -35
38 c-39 43 -40 41 30 115 46 49 49 56 49 104 -1 35 -7 57 -20 72 -33 37 -34
44 -9 74 13 15 26 45 30 66 3 20 9 52 12 71 5 27 0 43 -20 72 -14 21 -26 43
-26 47 0 5 -9 20 -20 34 -11 14 -20 37 -20 50 0 13 -5 33 -11 44 -8 17 -4 25
25 51 39 34 45 64 22 101 -19 29 -8 90 27 141 33 47 35 96 6 135 -17 23 -19
36 -14 82 17 146 17 177 0 202 -15 23 -15 28 -1 56 22 41 20 70 -6 98 -19 20
-29 64 -27 116 4 98 -4 185 -19 213 -7 14 -8 31 -2 50 31 101 31 103 -6 157
-22 31 -32 56 -28 66 3 9 16 42 27 74 17 49 26 61 56 75 34 16 36 20 39 71 2
32 -3 69 -12 92 -15 37 -14 41 9 88 37 73 34 116 -10 142 -22 13 -37 31 -40
48 -3 14 -9 38 -14 53 -7 22 -4 34 20 65 16 21 29 51 29 67 0 15 10 56 21 91
l22 62 -31 61 -31 61 20 24 c27 35 26 125 -1 169 -32 53 -26 92 20 142 57 62
58 136 3 238 -37 69 -38 69 -20 99 23 41 22 56 -9 91 -14 17 -23 37 -20 44 3
7 10 41 17 76 6 35 19 81 29 103 11 26 18 70 19 128 2 88 2 88 -33 127 -35 39
-35 39 -29 112 3 44 13 86 24 106 29 50 25 102 -11 147 -37 46 -43 142 -12
185 32 45 39 73 30 115 -6 27 -6 52 3 77 7 22 10 65 7 107 -4 48 -1 76 8 89 7
10 15 54 18 98 3 43 8 111 12 151 3 43 1 79 -5 91 -8 16 -6 31 10 69 13 30 18
57 14 73 -3 14 -10 45 -14 70 -13 69 -44 143 -75 180 -21 25 -26 40 -21 59 36
146 40 205 15 239 -22 30 -22 32 -6 74 10 24 28 60 42 80 35 55 32 86 -16 129
-46 42 -49 60 -20 139 24 66 25 83 4 115 -19 30 -5 62 31 71 29 7 65 53 65 83
0 12 -12 28 -27 38 -50 30 -54 41 -32 85 22 43 28 133 10 166 -6 11 -11 36
-11 55 0 19 -7 40 -16 48 -31 26 -42 64 -42 145 0 52 -5 91 -15 110 -8 16 -12
43 -10 60 3 18 -2 44 -11 62 -13 25 -14 36 -5 56 9 19 8 29 -5 47 -21 31 -21
33 13 71 36 42 43 72 47 185 2 71 7 99 21 120 32 47 43 82 43 132 0 36 11 72
40 136 49 106 49 112 6 190 -24 43 -32 70 -29 89 4 20 -1 34 -22 56 -15 16
-31 46 -35 67 -4 21 -11 46 -15 55 -5 12 4 27 30 51 40 37 75 114 82 184 4 36
2 43 -21 59 -45 29 -49 47 -20 103 26 53 23 95 -10 139 -5 8 -9 52 -7 99 3 91
-11 123 -51 123 -36 0 -56 34 -56 94 1 78 -28 105 -82 76 -30 -16 -60 20 -60
70 0 30 7 48 31 75 25 28 30 42 26 64 -4 16 0 36 7 47 8 11 16 42 19 69 14
118 25 162 52 203 16 23 33 43 39 43 34 5 43 6 59 8 43 3 74 113 42 154 -20
27 -10 43 52 84 85 56 94 78 89 198 -2 55 -10 137 -16 182 l-13 82 37 77 c20
42 47 90 61 106 14 17 35 48 46 69 11 22 34 46 52 55 17 9 47 30 65 45 18 16
41 29 51 29 22 0 128 68 184 118 28 24 43 31 55 25 29 -14 140 -6 175 13 17
10 56 30 86 45 l54 27 71 -30 c46 -19 80 -27 96 -23 89 22 122 28 183 32 56 4
77 11 120 39 64 42 75 42 132 -1 l46 -36 132 1 c503 4 627 0 642 -17 8 -10 28
-34 45 -53 l29 -35 31 34 c27 29 35 32 63 26 18 -3 51 -8 74 -9 24 -1 51 -10
60 -18 10 -9 28 -19 40 -22 11 -4 34 -23 49 -43 l27 -36 44 47 c36 39 46 45
62 37 13 -8 32 -7 63 2 30 9 51 10 70 3 27 -9 63 -1 199 45 31 11 83 19 118
19 34 0 72 6 84 13 25 16 125 7 328 -29 20 -3 46 -1 57 5 14 7 28 7 51 -2 27
-10 37 -8 85 15 40 20 63 26 90 21 26 -4 41 0 62 16 15 11 38 21 51 21 13 0
33 5 44 10 24 13 69 -8 93 -44 16 -25 21 -26 112 -26 76 0 103 -4 135 -20 56
-29 134 -29 182 0 l38 23 29 -22 c16 -11 35 -21 42 -21 7 0 30 -11 50 -25 46
-31 140 -36 170 -8 24 22 122 25 162 5 42 -20 81 -9 144 43 61 50 82 54 131
24 28 -17 44 -19 80 -14 25 3 93 8 150 10 103 4 104 4 150 43 66 55 66 55 100
26 28 -23 37 -25 93 -20 85 7 88 7 130 0 28 -5 48 0 89 20 28 15 57 25 63 23
6 -3 19 0 30 5 30 16 135 16 157 0 12 -8 34 -12 52 -9 19 3 43 -2 60 -11 32
-19 49 -12 75 30 15 25 15 28 -3 48 -10 11 -25 18 -32 16 -14 -6 -53 27 -53
44 0 24 50 60 82 60 18 0 40 5 48 10 24 15 48 12 70 -10z m-7370 -2090 c25
-25 25 -35 0 -60 -16 -16 -25 -18 -40 -10 -35 19 -43 47 -20 70 25 25 35 25
60 0z m10251 -20299 c44 -43 43 -63 -1 -86 -33 -17 -46 -9 -79 47 l-22 37 20
20 c29 29 38 27 82 -18z M15086 26499 c-10 -6 -58 -11 -107 -10 -84 0 -90 -1
-105 -24 -24 -37 -82 -69 -144 -77 -68 -10 -67 -10 -108 -2 -49 9 -106 -13
-146 -58 -19 -21 -41 -38 -48 -38 -8 0 -29 -11 -48 -25 -21 -15 -47 -25 -68
-25 -22 0 -48 -9 -68 -25 -18 -14 -70 -43 -114 -65 -45 -21 -92 -50 -105 -64
-13 -15 -32 -26 -41 -26 -16 0 -96 -53 -174 -117 -22 -17 -78 -50 -124 -73
-131 -64 -168 -103 -175 -183 -1 -4 -36 -42 -78 -85 -79 -79 -97 -105 -107
-155 -4 -15 -22 -44 -40 -65 -18 -20 -41 -52 -50 -70 -9 -18 -35 -60 -56 -94
-22 -34 -40 -69 -40 -79 0 -10 -12 -32 -27 -50 -30 -35 -53 -90 -53 -127 0
-12 -9 -40 -20 -62 -11 -22 -20 -57 -20 -78 0 -22 -11 -59 -25 -86 -29 -54
-32 -101 -9 -149 15 -31 15 -36 0 -65 -9 -17 -16 -43 -16 -57 0 -41 -17 -63
-58 -76 -37 -11 -145 -29 -169 -28 -88 4 -148 -6 -182 -32 -16 -13 -40 -19
-76 -19 -41 0 -61 -6 -96 -30 -32 -21 -56 -30 -87 -30 -47 0 -71 -10 -115 -46
-16 -13 -42 -24 -58 -24 -21 0 -34 -8 -47 -28 -28 -47 -130 -132 -156 -132
-23 0 -86 -59 -86 -80 0 -17 -39 -50 -59 -50 -26 0 -111 -58 -111 -75 0 -7
-12 -27 -26 -44 -21 -25 -25 -38 -20 -64 8 -39 8 -38 -3 -112 -4 -33 -13 -71
-18 -86 -7 -16 -8 -31 -2 -42 20 -35 -25 -76 -61 -57 -19 10 -36 47 -26 57 3
4 1 12 -6 20 -9 12 -16 9 -39 -17 -17 -18 -38 -30 -53 -30 -31 0 -65 -40 -114
-133 -20 -38 -44 -83 -52 -98 -8 -16 -37 -42 -63 -59 -58 -37 -87 -82 -87
-137 0 -32 -7 -50 -29 -75 -46 -53 -51 -71 -51 -175 0 -97 0 -99 31 -125 25
-22 28 -31 20 -46 -6 -12 -9 -69 -6 -143 2 -68 5 -133 5 -144 0 -11 -2 -37 -6
-58 -4 -22 -1 -50 6 -68 11 -27 10 -33 -9 -59 -36 -49 -25 -182 19 -235 9 -11
18 -52 22 -99 10 -124 17 -148 54 -182 28 -26 34 -39 34 -73 0 -22 -1 -42 -2
-43 -7 -13 40 -72 71 -87 42 -22 51 -36 51 -85 0 -32 25 -66 48 -66 31 0 52
-40 52 -96 0 -54 3 -60 54 -124 47 -58 68 -74 148 -115 51 -26 112 -65 135
-86 37 -34 69 -48 144 -63 17 -4 35 -19 48 -41 16 -28 26 -35 51 -35 48 0 125
-29 151 -56 12 -13 31 -24 41 -24 21 0 74 -25 98 -45 8 -7 43 -22 78 -34 48
-15 76 -33 115 -71 29 -28 68 -67 87 -86 19 -18 41 -34 48 -34 30 0 52 -39 52
-94 0 -44 5 -60 30 -91 35 -45 38 -80 10 -135 -11 -22 -20 -59 -20 -82 0 -33
-8 -54 -35 -93 -62 -86 -59 -87 -158 64 -74 114 -157 174 -234 172 -18 0 -45
10 -65 24 -18 13 -44 32 -56 41 -49 36 -223 50 -312 24 -48 -13 -76 -14 -156
-4 -62 7 -106 -12 -128 -55 -14 -26 -87 -65 -163 -86 -13 -3 -60 -30 -105 -60
-140 -90 -150 -96 -196 -112 -25 -8 -62 -26 -82 -39 -20 -14 -47 -27 -60 -29
-27 -5 -80 -53 -80 -72 0 -7 -15 -30 -34 -50 -18 -21 -41 -56 -50 -78 -9 -22
-30 -56 -45 -75 -16 -20 -40 -58 -54 -86 -14 -28 -33 -56 -42 -64 -9 -8 -28
-36 -41 -62 -15 -30 -35 -53 -52 -60 -68 -29 -92 -93 -61 -161 11 -25 -4 -68
-36 -107 -15 -18 -24 -62 -33 -161 -4 -42 -12 -82 -18 -90 -11 -13 -22 -72
-28 -147 -1 -18 -8 -38 -14 -44 -19 -19 -16 -291 4 -329 12 -24 13 -37 4 -64
-13 -41 -4 -81 27 -119 l24 -28 -26 -45 c-39 -71 -34 -112 20 -173 31 -35 45
-60 45 -79 0 -16 9 -36 21 -47 33 -30 40 -50 28 -77 -24 -52 47 -176 126 -222
29 -17 47 -36 52 -53 6 -25 25 -54 108 -167 25 -33 51 -73 59 -90 30 -62 93
-105 153 -105 45 0 54 -6 110 -75 31 -39 52 -53 88 -64 55 -16 89 -45 78 -65
-4 -8 -33 -33 -63 -56 -82 -64 -228 -217 -256 -269 -38 -70 -68 -118 -87 -139
-41 -45 -89 -138 -89 -172 0 -19 -8 -51 -18 -70 -19 -35 -25 -57 -39 -140 -4
-25 -15 -62 -24 -84 -20 -46 -25 -303 -6 -338 6 -11 11 -51 10 -90 0 -51 5
-80 19 -108 11 -22 20 -53 20 -71 0 -19 19 -65 48 -118 50 -88 66 -124 77
-176 3 -16 18 -47 31 -67 28 -39 25 -56 -15 -92 -12 -11 -21 -30 -21 -43 0
-39 -24 -73 -104 -153 -48 -47 -76 -82 -76 -96 0 -12 -15 -44 -33 -70 -19 -27
-39 -65 -45 -84 -29 -93 -34 -120 -29 -141 3 -12 1 -32 -6 -43 -21 -37 -37
-90 -37 -122 0 -17 -9 -43 -20 -57 -28 -35 -60 -113 -60 -146 0 -15 13 -43 31
-64 28 -35 31 -43 34 -134 5 -142 19 -251 38 -303 9 -25 17 -58 17 -74 0 -48
43 -157 68 -175 49 -33 62 -51 62 -84 0 -34 33 -77 59 -77 23 0 61 -48 61 -79
0 -21 10 -40 34 -63 19 -18 54 -52 78 -74 24 -23 66 -53 95 -68 32 -16 54 -34
58 -48 14 -44 93 -108 134 -108 11 0 35 -13 53 -29 43 -37 71 -51 103 -51 27
0 139 -52 150 -70 3 -5 33 -10 66 -10 41 0 73 -7 100 -21 34 -17 53 -20 113
-15 153 11 176 16 193 43 9 14 34 36 55 50 48 30 48 59 -1 88 -18 11 -52 37
-76 58 -23 20 -46 37 -51 37 -5 0 -26 11 -46 25 -23 16 -51 25 -75 25 -23 0
-56 11 -84 28 -48 28 -249 215 -249 231 0 5 -16 28 -35 51 -19 23 -35 50 -35
60 0 10 -7 23 -16 31 -30 24 -55 88 -49 122 4 19 0 46 -8 66 -11 25 -13 57
-10 111 5 63 2 82 -15 115 l-20 40 28 55 c15 30 30 67 34 82 3 14 22 47 41 72
19 26 35 55 35 67 0 35 26 72 108 152 53 51 90 79 112 83 17 4 37 15 43 26 14
22 139 88 167 88 11 0 34 9 52 20 26 16 51 20 120 20 70 0 94 4 122 21 38 22
36 22 261 -1 123 -13 171 -14 213 -5 18 4 44 3 60 -4 15 -6 74 -12 132 -12 58
-1 119 -5 135 -10 109 -29 145 -42 156 -55 22 -26 67 -44 111 -44 25 0 54 -7
68 -17 30 -21 87 -43 114 -43 32 0 149 -69 187 -111 31 -33 43 -39 77 -39 32
0 49 -7 75 -30 19 -17 42 -30 51 -30 31 0 75 -30 91 -60 9 -17 38 -47 65 -66
28 -20 53 -47 56 -60 8 -31 90 -104 117 -104 11 0 43 -24 72 -55 29 -30 58
-55 63 -55 17 0 141 -165 155 -208 8 -22 27 -61 43 -87 45 -73 53 -88 58 -116
8 -37 63 -108 98 -127 18 -10 48 -33 67 -52 77 -75 165 -104 321 -103 186 2
264 14 360 56 55 24 101 37 129 37 23 0 52 5 64 12 12 6 54 15 92 19 39 5 97
12 130 17 51 8 66 6 99 -10 27 -14 50 -18 75 -14 27 4 46 -1 76 -19 22 -14 48
-25 58 -25 36 0 116 -32 138 -56 12 -13 34 -24 47 -24 38 0 107 -45 131 -85
11 -19 27 -35 34 -35 29 0 70 -45 102 -112 19 -38 48 -85 64 -104 17 -19 31
-46 31 -60 0 -14 8 -39 17 -57 9 -18 21 -54 25 -82 10 -59 26 -155 34 -206 4
-25 -1 -52 -16 -87 -13 -30 -20 -61 -17 -74 4 -13 1 -41 -4 -63 -18 -68 -30
-127 -39 -190 -5 -33 -13 -85 -18 -115 -4 -30 -16 -69 -25 -87 -20 -37 -24
-162 -6 -195 6 -11 13 -39 15 -62 20 -224 21 -228 57 -279 18 -27 48 -44 90
-52 22 -5 85 -59 147 -127 58 -62 124 -88 224 -86 121 2 181 -46 156 -125 -18
-57 -38 -96 -71 -137 -15 -19 -35 -59 -45 -88 -18 -57 -35 -72 -84 -72 -37 0
-142 -51 -189 -92 -19 -17 -41 -28 -51 -25 -10 3 -58 -1 -106 -8 -49 -8 -101
-11 -115 -8 -15 3 -37 -1 -50 -8 -13 -7 -37 -12 -53 -11 -39 3 -86 -41 -86
-80 0 -16 -12 -41 -30 -61 -17 -20 -30 -46 -30 -61 0 -49 -89 -227 -136 -273
-27 -26 -47 -57 -54 -83 -9 -32 -18 -45 -43 -55 -18 -8 -47 -25 -66 -39 -19
-14 -45 -26 -56 -26 -27 0 -47 -23 -64 -75 -25 -75 -47 -100 -127 -141 -42
-21 -83 -49 -91 -61 -8 -12 -34 -34 -59 -48 -24 -14 -55 -41 -70 -60 -33 -44
-60 -51 -109 -30 -38 15 -39 15 -115 -23 -63 -32 -80 -37 -99 -28 -21 9 -27 6
-52 -24 -26 -31 -32 -33 -80 -31 -51 2 -53 1 -99 -49 -44 -47 -96 -75 -135
-70 -99 11 -138 11 -153 -3 -59 -51 -82 -50 -169 8 -47 32 -96 33 -134 1 -23
-19 -36 -23 -67 -19 -22 3 -48 0 -59 -5 -16 -9 -31 -4 -84 29 -52 33 -71 39
-100 36 -20 -3 -61 2 -90 11 -30 9 -81 16 -115 16 -33 1 -67 6 -75 12 -24 19
-139 56 -155 50 -10 -4 -29 9 -52 35 -20 23 -58 52 -83 64 -43 22 -60 47 -83
117 -7 23 -64 58 -94 58 -15 0 -42 19 -76 53 -50 52 -56 63 -88 180 -6 23 -21
53 -34 67 -12 14 -30 45 -41 70 -11 25 -42 67 -69 94 -71 70 -84 94 -78 136 5
34 2 42 -48 111 -14 20 -15 31 -7 64 12 46 12 50 0 130 -15 92 -26 137 -45
173 -19 38 -6 95 40 164 30 46 31 80 3 117 -18 24 -20 34 -11 62 41 135 58
181 83 230 18 33 27 62 23 73 -5 12 5 28 33 54 22 20 51 58 66 84 33 57 62 80
94 72 28 -7 63 20 63 48 0 23 42 66 87 90 20 10 42 36 58 68 31 60 74 90 131
90 26 0 60 10 95 30 30 16 64 30 77 30 15 0 29 10 40 32 30 55 49 70 74 57 13
-7 67 -11 144 -10 108 1 127 -1 168 -21 40 -19 50 -20 79 -10 56 20 93 15 130
-18 23 -20 45 -30 66 -30 35 0 78 -19 127 -56 17 -13 38 -24 47 -24 9 0 58
-36 108 -80 50 -44 95 -80 100 -80 5 0 30 -44 56 -97 25 -54 54 -109 65 -122
10 -13 18 -33 18 -45 0 -11 8 -41 17 -66 27 -74 51 -324 35 -368 -5 -15 -15
-47 -22 -72 -18 -70 -69 -172 -101 -205 -16 -16 -55 -58 -86 -93 -81 -90 -125
-114 -243 -133 -63 -11 -55 -11 -180 -1 -122 10 -124 11 -165 96 -32 64 -91
172 -122 223 -18 30 -1 46 90 87 l77 35 33 -28 c50 -43 71 -51 139 -51 77 0
96 12 137 84 76 131 6 291 -180 411 -76 49 -112 57 -264 57 -165 1 -261 -20
-287 -62 -7 -11 -31 -31 -53 -44 -22 -13 -53 -43 -70 -66 -16 -23 -41 -56 -56
-73 -44 -55 -89 -130 -89 -148 0 -10 -11 -44 -25 -75 -14 -31 -25 -65 -25 -76
0 -10 -9 -36 -20 -58 -12 -24 -20 -59 -20 -91 0 -51 5 -74 37 -169 21 -65 43
-140 52 -181 4 -20 17 -52 29 -70 11 -19 32 -63 46 -98 33 -81 54 -104 122
-131 37 -15 59 -32 72 -55 13 -20 30 -34 48 -38 16 -3 50 -20 75 -36 26 -17
77 -42 115 -56 38 -14 81 -34 95 -44 36 -27 175 -41 237 -25 19 5 65 5 105 1
100 -12 193 -11 252 1 143 30 218 55 254 83 14 12 40 19 65 19 42 0 65 14 178
110 20 17 54 36 75 42 20 5 51 25 68 42 16 18 45 43 64 56 42 29 131 164 131
199 0 15 8 37 18 51 50 70 152 269 152 298 0 10 9 31 20 45 11 14 20 32 20 40
0 8 8 32 17 53 9 22 20 66 25 99 5 33 11 77 14 99 4 21 1 56 -6 77 -12 36 -11
43 19 110 31 70 32 73 16 111 -9 25 -13 52 -9 77 4 28 0 49 -15 79 -14 28 -21
60 -21 98 0 32 -4 71 -9 88 -5 17 -15 51 -22 76 -6 25 -21 70 -31 100 -11 30
-30 82 -42 116 -24 69 -39 93 -95 158 -23 26 -44 59 -47 74 -4 15 -21 43 -38
62 -18 19 -49 61 -69 92 -22 35 -51 65 -72 75 -19 10 -48 39 -64 66 -19 28
-38 47 -49 47 -10 0 -47 18 -81 40 -78 50 -129 76 -211 107 -36 14 -83 32
-105 41 -22 8 -60 18 -85 23 -25 4 -63 13 -85 20 -49 16 -323 17 -377 2 -21
-6 -56 -20 -78 -32 -61 -31 -100 -3 -100 71 0 41 -51 139 -105 202 -99 116
-180 196 -197 196 -29 0 -69 24 -107 64 -21 21 -45 36 -58 36 -13 0 -38 8 -56
17 -58 31 -101 43 -159 43 -34 0 -75 8 -104 21 -77 32 -315 15 -456 -34 -42
-15 -86 -27 -98 -27 -12 0 -33 -9 -47 -20 -14 -11 -39 -20 -56 -20 -23 0 -44
-13 -86 -53 -31 -29 -85 -69 -120 -87 -41 -22 -71 -46 -83 -67 -11 -18 -34
-42 -53 -53 -49 -30 -110 -101 -144 -167 -38 -76 -104 -129 -135 -110 -53 35
-158 43 -206 17 -88 -48 -161 -71 -239 -77 -63 -4 -109 -20 -231 -82 -30 -16
-67 -31 -83 -35 -15 -3 -48 -27 -73 -52 -25 -24 -67 -55 -93 -68 -50 -26 -110
-85 -136 -135 -16 -33 -43 -51 -72 -51 -11 0 -33 -15 -50 -32 -30 -32 -36 -43
-84 -142 -49 -100 -60 -117 -87 -128 -59 -25 -72 -46 -72 -116 0 -60 -2 -65
-35 -95 -27 -24 -35 -38 -35 -64 0 -19 -17 -69 -37 -111 -33 -69 -38 -89 -44
-187 -4 -60 -13 -137 -19 -170 -7 -33 -13 -92 -15 -132 -1 -40 -6 -80 -10 -90
-5 -10 -12 -45 -16 -78 -4 -33 -13 -80 -19 -105 -26 -100 -25 -117 10 -156 28
-32 31 -42 25 -73 -16 -83 -3 -209 27 -266 9 -17 17 -51 19 -75 2 -36 10 -54
41 -87 37 -42 40 -51 42 -136 1 -30 9 -44 38 -71 20 -19 40 -47 44 -63 4 -15
20 -43 36 -61 15 -18 28 -41 28 -51 0 -29 82 -144 119 -166 19 -11 53 -39 75
-61 23 -23 70 -57 106 -77 36 -19 83 -54 105 -76 27 -29 47 -41 67 -41 20 0
45 -15 87 -54 56 -51 113 -84 173 -99 15 -4 39 -23 54 -42 27 -36 62 -45 93
-26 10 6 28 3 53 -10 23 -12 55 -19 78 -17 22 1 45 -3 52 -10 16 -16 44 -15
72 3 22 15 26 14 54 -10 20 -17 42 -25 66 -25 48 0 76 -28 76 -77 0 -44 37
-110 79 -141 52 -38 71 -89 71 -189 0 -88 21 -153 50 -153 20 0 50 -41 50 -68
0 -22 12 -40 50 -74 49 -44 50 -47 50 -102 0 -67 8 -85 67 -148 36 -40 42 -51
33 -67 -17 -33 -11 -53 26 -87 27 -25 34 -38 29 -54 -8 -24 60 -94 82 -85 8 2
31 -11 52 -30 31 -28 47 -35 80 -35 72 0 111 -40 111 -114 0 -51 36 -76 110
-76 54 0 61 -3 136 -60 57 -43 88 -60 111 -60 19 0 44 -10 63 -27 28 -23 36
-25 61 -16 24 9 33 8 53 -8 28 -22 83 -24 110 -4 17 13 24 11 63 -12 36 -21
49 -24 67 -15 14 6 28 7 37 1 8 -5 56 -9 106 -8 61 1 98 -3 108 -11 14 -12 23
-11 154 6 34 5 49 2 72 -15 35 -26 64 -27 96 -1 33 26 38 26 118 -11 69 -31
69 -31 180 -19 6 1 23 -1 38 -5 20 -4 36 0 54 14 30 24 53 16 94 -32 21 -26
28 -28 46 -19 17 9 26 8 46 -8 37 -30 134 -28 196 4 42 21 51 22 72 10 35 -19
91 -17 145 7 37 15 54 18 71 10 25 -12 80 6 103 34 23 28 48 37 71 25 16 -9
28 -8 52 1 17 7 45 12 62 10 17 -1 52 7 79 18 26 12 63 21 83 21 23 0 52 12
87 35 40 26 64 35 95 35 28 0 52 7 68 20 14 11 35 20 47 20 11 0 43 13 70 28
43 23 51 34 66 79 19 60 45 103 63 104 6 0 31 0 53 -1 23 -1 45 4 49 10 3 6
37 26 75 45 68 34 190 144 190 172 0 35 27 66 76 88 28 12 60 35 70 50 11 15
33 43 50 63 17 21 35 47 38 60 9 28 57 54 77 41 8 -5 28 -9 46 -9 19 0 43 -10
62 -26 22 -18 38 -24 54 -20 13 3 32 0 43 -8 10 -7 31 -16 45 -19 14 -4 42
-18 63 -32 48 -33 69 -32 121 6 38 28 49 30 87 25 129 -20 167 -19 198 7 18
16 37 23 49 20 13 -3 32 5 53 22 24 20 38 25 57 20 31 -9 70 -8 131 1 36 5 53
15 85 49 55 59 84 65 137 29 l41 -29 36 41 c20 22 52 50 71 62 19 11 49 35 65
52 32 34 94 70 119 70 9 0 27 18 41 39 18 29 43 49 91 73 37 18 74 44 83 57 9
13 50 58 91 101 88 92 118 129 145 181 26 49 92 101 117 93 39 -12 58 22 58
101 0 64 3 76 30 111 16 21 30 50 30 64 0 14 14 63 30 110 32 91 36 121 20
150 -7 13 -5 24 8 41 31 42 40 74 40 145 0 38 5 83 11 99 6 17 13 42 16 57 4
21 17 33 53 50 54 26 57 35 73 198 14 133 13 197 -1 255 -6 28 -16 97 -20 155
-13 154 -20 193 -41 215 -31 35 -59 130 -52 180 5 40 2 48 -26 80 -17 20 -31
47 -31 60 0 28 -17 70 -42 104 -12 15 -18 42 -18 75 -1 68 -26 115 -74 140
-29 16 -48 37 -74 84 -21 38 -45 68 -63 78 -16 8 -29 19 -29 24 0 22 -83 100
-105 100 -15 0 -53 30 -112 88 -104 102 -177 158 -201 155 -9 -2 -34 -6 -54
-9 -30 -5 -47 0 -90 25 -31 17 -71 31 -93 32 -22 1 -53 9 -70 18 -28 14 -89
24 -242 37 -48 4 -67 2 -88 -12 -24 -16 -107 -35 -142 -34 -7 1 -24 1 -38 0
-30 0 -65 0 -102 1 -61 1 -98 -13 -135 -52 -83 -87 -146 -13 -102 120 12 38
31 63 87 114 162 148 188 169 205 161 38 -16 70 -14 115 5 27 12 68 21 91 21
23 0 47 5 54 12 6 6 26 13 44 14 49 4 122 19 136 28 7 4 28 -1 48 -13 48 -29
130 -28 179 0 l36 22 45 -33 c49 -35 81 -37 169 -10 43 13 122 27 195 36 25 4
54 14 65 23 52 46 113 71 154 65 38 -6 40 -5 74 42 20 27 49 59 66 72 21 15
31 31 31 49 0 26 40 70 124 136 23 18 39 43 46 67 6 22 22 52 35 68 14 17 25
35 25 41 0 20 49 120 74 154 14 19 26 45 26 59 0 14 8 43 17 64 9 22 20 64 24
94 5 30 11 69 15 87 5 24 1 39 -15 59 -28 36 -26 70 6 117 30 43 30 46 19 232
-5 64 -15 131 -26 160 -10 28 -23 69 -29 93 -27 102 -36 130 -58 174 -12 25
-41 61 -64 80 -65 52 -178 168 -184 189 -9 27 -3 35 163 209 99 103 152 166
152 180 0 11 6 33 14 48 53 102 74 236 64 395 -1 17 1 57 4 87 4 31 2 63 -4
74 -6 11 -12 65 -14 121 -5 146 -22 261 -44 305 -11 22 -20 47 -20 56 0 9 -14
32 -30 51 -24 27 -28 38 -20 53 23 43 10 89 -41 148 -16 18 -29 43 -29 56 0
41 -42 130 -75 161 -18 17 -40 45 -49 62 -19 38 -138 173 -166 188 -19 10 -58
63 -85 115 -17 34 -72 62 -95 49 -16 -8 -74 24 -136 75 -17 14 -43 30 -58 36
-38 14 -113 66 -119 83 -3 9 25 47 74 98 43 45 81 91 85 101 3 10 34 34 70 54
35 20 107 76 159 125 52 49 99 89 104 89 15 0 121 101 121 115 0 14 51 83 94
126 14 14 44 62 67 105 23 43 52 90 65 105 13 14 24 33 24 42 0 21 35 93 50
102 5 3 10 23 10 44 0 23 9 51 23 72 29 43 38 64 48 114 4 22 13 58 20 80 13
43 28 211 32 368 2 58 8 102 15 109 7 7 12 41 12 80 0 64 -2 70 -35 106 l-35
37 -23 -26 c-49 -58 -100 -93 -136 -96 -81 -6 -127 -17 -150 -34 -13 -11 -28
-19 -33 -19 -6 0 -21 -9 -35 -19 -52 -42 -89 11 -43 62 35 41 38 67 10 105
-19 26 -20 31 -6 62 17 41 11 85 -15 119 -11 13 -19 40 -19 60 0 20 -7 44 -15
54 -8 11 -11 32 -9 50 8 46 -20 104 -61 129 -19 11 -35 25 -36 31 -13 146 20
219 76 163 14 -14 25 -34 25 -44 0 -11 7 -26 16 -33 9 -8 27 -31 40 -51 14
-21 31 -38 39 -38 28 0 57 -38 45 -60 -17 -31 -11 -65 15 -90 13 -13 33 -52
45 -90 26 -84 39 -102 76 -106 16 -2 47 -6 69 -8 46 -5 75 -34 75 -76 0 -43
28 -61 49 -32 9 13 28 38 44 57 32 39 34 58 7 92 -11 14 -20 32 -20 40 0 7 9
31 20 53 25 50 25 95 0 127 -15 20 -17 29 -9 45 6 11 8 32 5 47 -4 14 -11 44
-17 66 -17 66 -30 137 -35 190 -3 28 -16 73 -29 100 -73 159 -85 188 -85 218
0 43 -22 102 -47 129 -12 13 -32 43 -45 68 -33 65 -58 105 -100 163 -21 29
-39 62 -39 74 -1 13 -2 26 -3 31 -17 64 -32 93 -73 134 -42 43 -52 48 -90 48
-36 0 -50 6 -84 38 -23 20 -65 53 -93 73 -34 24 -55 46 -62 69 -14 41 -50 73
-76 65 -10 -4 -33 3 -54 16 -35 21 -65 30 -162 48 -41 8 -84 38 -103 73 -15
27 22 58 69 58 40 0 103 50 108 85 4 24 50 81 86 106 18 12 68 57 111 100 43
44 89 82 105 85 34 8 72 42 72 64 0 9 15 37 34 61 46 61 76 150 76 231 0 52 4
71 22 93 23 29 27 99 8 134 -7 14 -2 28 19 57 19 26 31 56 34 89 7 70 21 124
41 163 14 28 17 64 17 243 -1 190 1 214 19 249 25 49 25 75 0 107 -17 22 -20
41 -20 122 0 81 -5 110 -30 181 -16 47 -30 96 -30 110 -1 58 -40 134 -80 155
-40 21 -110 140 -110 187 0 29 -8 42 -42 74 -24 21 -52 56 -64 78 -13 27 -33
47 -57 58 -28 14 -39 27 -48 59 -8 25 -36 66 -74 107 -34 37 -69 81 -78 99
-18 35 -134 103 -175 103 -15 0 -45 20 -80 54 -67 63 -90 76 -132 76 -38 0
-77 19 -109 54 -20 21 -34 26 -72 26 -26 0 -69 9 -95 20 l-48 21 -40 -22 -41
-21 -47 20 c-69 30 -77 49 -74 167 2 55 7 113 11 128 6 21 3 33 -13 50 -39 43
-52 83 -52 162 0 56 -5 86 -20 115 -13 26 -20 59 -20 96 0 53 -3 60 -35 90
-24 22 -33 37 -29 49 8 20 -13 90 -38 127 -10 15 -31 53 -45 85 -15 32 -35 70
-46 84 -15 21 -17 31 -8 47 17 33 13 66 -14 106 -14 20 -32 51 -41 69 -9 17
-30 47 -45 65 -16 18 -29 43 -29 56 0 31 -33 60 -61 53 -26 -7 -114 35 -123
58 -3 9 -6 27 -6 40 0 14 -13 39 -29 57 -15 18 -35 47 -44 64 -19 36 -93 104
-114 104 -29 0 -71 31 -81 59 -15 44 -127 110 -187 111 -10 0 -52 23 -92 50
-59 40 -81 50 -114 50 -31 0 -56 9 -93 34 -28 18 -62 36 -76 39 -85 18 -150
51 -170 84 -17 29 -24 34 -43 28 -54 -18 -171 -15 -230 6 -41 15 -72 19 -105
15 -85 -9 -127 -18 -146 -32 -17 -11 -50 -11 -112 2 -12 2 -31 19 -42 38 -16
26 -28 35 -58 39 -22 3 -53 9 -71 12 -24 5 -38 2 -61 -15 -21 -16 -36 -20 -49
-15 -10 4 -38 11 -63 15 -25 5 -54 11 -65 14 -11 3 -28 1 -39 -5z m689 -696
c9 -10 26 -31 38 -47 20 -25 26 -27 44 -17 24 12 107 -16 115 -40 6 -19 -8
-89 -20 -101 -32 -32 -182 -31 -217 2 -11 11 -29 20 -39 20 -34 0 -54 20 -70
70 -19 58 -15 85 17 102 19 10 38 15 110 27 4 0 14 -7 22 -16z m405 -73 c24
-24 17 -44 -30 -84 -35 -29 -55 -25 -75 15 -20 37 -19 45 5 69 26 26 74 26
100 0z m185 -15 c30 -29 31 -39 6 -64 -17 -17 -26 -18 -53 -10 -61 17 -70 56
-19 84 35 19 38 19 66 -10z m-1132 -652 c12 -43 0 -85 -32 -110 -17 -13 -29
-29 -26 -33 3 -5 -4 -19 -15 -30 -38 -38 -85 10 -51 51 17 21 17 26 4 57 -17
40 -11 74 17 102 20 20 20 20 59 0 22 -11 42 -28 44 -37z m90 -1289 c33 -22
46 -25 90 -20 55 5 145 20 188 31 19 5 43 -2 87 -24 41 -21 76 -31 105 -31 29
0 53 -7 70 -20 14 -11 33 -20 43 -20 9 0 40 -15 68 -34 28 -18 61 -36 73 -40
12 -4 30 -21 41 -39 19 -33 47 -51 96 -62 31 -7 93 -69 116 -118 15 -31 54
-56 115 -74 35 -10 79 -69 69 -92 -4 -9 -9 -38 -12 -64 -4 -43 -1 -52 24 -78
15 -16 34 -29 41 -29 26 0 54 -39 43 -60 -19 -36 -12 -110 16 -157 14 -25 23
-51 20 -59 -3 -8 8 -45 25 -82 22 -49 29 -75 24 -97 -22 -102 -28 -213 -19
-318 7 -86 -28 -186 -82 -230 -19 -16 -34 -37 -34 -48 0 -35 -37 -94 -85 -134
-25 -22 -70 -64 -100 -92 -29 -29 -61 -53 -70 -53 -9 0 -35 -13 -58 -29 -37
-26 -71 -39 -203 -81 -17 -6 -50 -10 -75 -10 -24 -1 -55 -7 -68 -14 -21 -12
-30 -11 -72 10 -29 15 -64 24 -93 24 -61 0 -163 51 -172 86 -7 29 -40 54 -71
54 -51 0 -179 146 -182 208 -1 7 -10 26 -22 41 -47 64 20 320 88 337 32 8 71
34 130 87 48 42 92 48 143 22 51 -26 52 -43 9 -118 -39 -68 -39 -70 -39 -175
0 -95 2 -108 22 -129 25 -27 57 -29 99 -8 24 13 36 14 68 4 31 -9 43 -8 69 5
17 9 54 16 83 16 50 0 54 2 104 56 119 129 166 287 136 459 -18 106 -24 130
-37 150 -7 11 -20 43 -29 70 -10 32 -31 64 -56 87 -21 21 -39 43 -39 51 0 29
-73 80 -215 150 -87 43 -131 57 -180 57 -22 0 -76 5 -120 12 -72 10 -87 9
-131 -7 -60 -22 -155 -30 -182 -16 -35 19 -153 -41 -189 -96 -26 -39 -121
-132 -164 -158 -42 -27 -89 -84 -89 -107 0 -9 -18 -38 -40 -64 -22 -27 -40
-59 -40 -72 0 -20 -8 -37 -48 -112 -31 -57 -42 -86 -42 -114 0 -19 -8 -44 -19
-57 -10 -13 -21 -40 -24 -59 -3 -19 -11 -55 -17 -80 -7 -25 -12 -62 -11 -82 2
-39 2 -153 1 -233 -1 -25 -1 -55 -1 -67 0 -13 -2 -57 -5 -99 l-6 -77 36 -27
c23 -17 40 -43 51 -73 8 -26 29 -67 45 -91 17 -25 33 -56 37 -70 10 -41 61
-109 94 -126 26 -14 56 -61 73 -116 5 -19 90 -79 111 -79 7 0 26 -11 42 -24
16 -13 68 -43 115 -65 48 -23 113 -64 146 -91 55 -46 64 -50 113 -50 39 0 71
-9 114 -30 33 -16 71 -30 85 -30 14 0 41 -11 60 -24 38 -25 86 -38 138 -37 72
2 100 1 156 -5 l59 -6 39 41 c43 47 73 45 84 -7 3 -15 15 -44 26 -65 16 -30
19 -48 13 -85 -10 -75 -9 -114 5 -157 7 -22 13 -60 14 -85 1 -52 10 -70 35
-70 31 0 111 -61 131 -100 20 -39 77 -95 116 -112 13 -6 35 -31 49 -54 30 -50
82 -94 114 -94 12 0 57 -18 101 -40 44 -22 90 -40 103 -40 14 0 35 -8 48 -19
30 -23 72 -34 127 -33 23 1 51 1 62 0 30 0 241 1 313 3 34 1 89 -4 122 -11 51
-10 118 -14 218 -11 82 3 187 -15 209 -36 13 -12 53 -35 88 -52 69 -31 112
-69 129 -113 7 -17 24 -33 48 -43 21 -9 59 -37 85 -63 93 -92 121 -117 148
-133 15 -9 33 -32 40 -50 7 -19 36 -56 65 -84 86 -84 163 -202 186 -285 7 -25
23 -59 35 -76 32 -44 54 -101 54 -141 0 -23 9 -46 25 -65 20 -23 25 -39 23
-77 -2 -36 3 -54 20 -76 16 -21 22 -41 22 -81 0 -31 8 -72 21 -101 16 -38 19
-60 14 -103 -14 -131 -5 -188 39 -241 34 -40 37 -126 6 -177 -15 -24 -20 -48
-19 -91 1 -32 -2 -65 -7 -72 -4 -8 -11 -34 -15 -59 -7 -50 -31 -124 -60 -185
-11 -22 -19 -55 -19 -73 0 -46 -11 -63 -75 -111 l-55 -42 0 -64 c0 -132 -81
-235 -185 -235 -61 0 -65 -9 -65 -138 0 -98 3 -117 20 -139 22 -29 14 -57 -20
-68 -44 -14 -224 -9 -256 8 -53 27 -53 27 11 192 15 39 31 89 34 112 4 23 15
52 23 65 9 13 18 51 21 84 3 32 11 93 17 134 6 41 10 82 10 90 0 52 2 124 6
180 10 137 3 302 -16 370 -13 48 -13 57 -4 138 5 45 2 63 -22 115 -17 40 -28
83 -30 118 -1 32 -7 66 -13 77 -6 12 -11 30 -11 40 0 54 -75 172 -130 204 -44
27 -60 46 -60 74 0 15 -17 37 -49 64 -28 24 -56 59 -65 80 -13 34 -28 46 -111
90 -81 44 -96 56 -103 83 -5 21 -19 37 -38 47 -17 8 -54 38 -83 67 -54 54 -83
64 -135 51 -30 -8 -56 2 -91 32 -52 45 -189 100 -251 100 -21 0 -54 9 -72 20
-21 13 -50 20 -81 20 -27 0 -64 6 -82 14 -19 7 -49 11 -67 9 -20 -3 -52 3 -87
17 -41 17 -64 20 -92 15 -35 -6 -62 -7 -155 -5 -38 1 -135 -14 -160 -24 -28
-12 -60 28 -48 59 16 42 12 132 -7 168 -10 18 -20 66 -24 112 -3 44 -15 102
-27 130 -11 28 -26 66 -33 85 -7 19 -26 52 -41 72 -30 40 -43 67 -53 111 -3
16 -21 44 -40 63 -26 26 -35 43 -35 69 0 60 -37 125 -72 125 -11 0 -43 22 -71
48 -29 27 -70 59 -92 72 -50 30 -124 95 -150 135 -13 19 -33 32 -55 37 -45 9
-104 24 -155 38 -22 6 -58 15 -80 19 -22 5 -53 13 -68 20 -16 6 -39 11 -51 11
-13 0 -35 9 -49 20 -14 11 -38 22 -54 24 -15 1 -42 10 -60 19 -18 10 -44 17
-58 17 -14 0 -43 9 -65 20 -22 11 -48 20 -59 20 -28 0 -92 29 -196 89 -49 29
-104 59 -121 66 -21 9 -40 28 -54 55 -15 29 -40 54 -91 86 -50 33 -75 56 -90
87 -12 23 -35 57 -50 75 -16 18 -29 42 -29 53 0 34 -61 125 -121 181 -19 17
-29 37 -29 55 0 21 -13 40 -50 74 -35 32 -50 54 -50 71 0 14 -8 43 -17 64 -9
22 -20 66 -24 99 -4 33 -12 78 -19 100 -25 85 -32 122 -38 192 -5 52 -13 78
-28 95 -36 40 -36 47 -4 104 25 42 31 63 26 87 -14 79 -13 113 4 147 27 54 40
102 40 147 0 27 14 72 40 128 22 48 40 92 40 97 0 10 21 46 78 134 12 19 22
44 22 55 0 24 64 136 93 162 10 9 28 17 39 17 30 0 118 77 118 103 0 26 139
163 185 183 17 7 50 27 75 44 25 16 62 35 82 40 20 6 60 28 89 50 34 26 64 40
83 40 17 0 40 10 53 22 19 17 33 21 79 19 38 -1 61 3 73 13 18 16 97 46 123
46 9 0 34 11 54 25 45 31 41 31 87 -1z m-2435 -339 c35 -10 46 -41 32 -86 -16
-47 -8 -67 30 -81 66 -23 48 -76 -42 -124 -17 -9 -36 -33 -49 -65 -25 -57 -48
-74 -73 -56 -22 16 -37 82 -29 130 4 26 1 43 -9 55 -30 35 -29 42 7 75 31 29
36 39 37 81 1 53 26 91 56 82 9 -2 27 -7 40 -11z m4661 -505 c28 -14 45 -64
32 -89 -41 -76 -161 -52 -161 33 0 53 75 86 129 56z m395 -340 c53 -22 68 -55
42 -95 -33 -50 -52 -50 -96 -3 -60 63 -64 74 -40 98 25 25 37 25 94 0z m-1184
-1360 c24 -24 17 -46 -21 -66 -58 -29 -88 42 -31 75 24 15 29 14 52 -9z m135
-85 c38 -37 26 -68 -33 -85 -60 -17 -104 48 -62 90 27 27 66 25 95 -5z m1305
-1025 c26 -49 -39 -91 -80 -50 -23 23 -17 46 18 64 30 16 48 11 62 -14z
m-2948 -4 c49 -3 78 -10 110 -29 23 -14 60 -35 81 -47 26 -14 45 -35 57 -64
18 -38 56 -85 66 -78 14 8 27 -5 59 -61 19 -35 35 -73 35 -84 0 -29 26 -87 46
-104 30 -25 48 -81 56 -174 4 -49 12 -121 18 -160 20 -123 14 -227 -19 -337
-12 -40 -55 -101 -128 -182 -34 -38 -43 -56 -43 -85 0 -38 -32 -137 -50 -155
-19 -19 -13 -262 9 -304 10 -20 21 -50 25 -66 7 -27 27 -52 119 -146 40 -41
96 -70 135 -70 24 0 52 -10 79 -29 23 -16 72 -41 108 -56 60 -26 68 -27 104
-15 52 17 85 7 117 -35 21 -28 33 -35 60 -35 22 0 44 -9 66 -29 44 -38 151
-91 183 -91 27 0 61 -30 98 -84 13 -19 27 -26 49 -26 23 0 40 -10 69 -42 22
-24 54 -58 71 -76 31 -30 32 -36 30 -92 -4 -71 22 -120 64 -120 29 0 64 -33
64 -60 0 -12 9 -33 21 -49 11 -15 25 -47 30 -70 5 -23 19 -55 31 -71 14 -19
21 -46 23 -82 1 -29 10 -75 19 -102 14 -39 15 -53 6 -76 -10 -24 -8 -39 9 -87
13 -38 21 -84 21 -127 0 -53 4 -74 20 -93 11 -15 28 -51 36 -82 9 -31 25 -73
35 -93 11 -21 19 -47 19 -59 0 -39 99 -208 132 -225 30 -16 58 -66 58 -105 0
-12 14 -37 30 -56 17 -18 30 -43 30 -54 0 -29 24 -70 62 -105 18 -17 45 -50
60 -73 18 -26 35 -41 48 -41 25 0 74 -46 65 -61 -13 -20 6 -62 44 -100 53 -52
79 -134 61 -189 -8 -24 -11 -61 -7 -96 4 -39 2 -66 -7 -83 -20 -39 -36 -94
-36 -124 0 -20 -18 -43 -72 -95 -116 -109 -161 -148 -188 -162 -14 -7 -50 -28
-80 -48 -30 -20 -71 -46 -91 -59 -19 -13 -42 -23 -51 -23 -8 0 -35 -13 -59
-30 -24 -16 -52 -30 -61 -30 -16 0 -94 -31 -128 -51 -35 -21 -103 -49 -118
-49 -9 0 -28 -7 -42 -15 -25 -14 -139 -74 -215 -113 -22 -11 -57 -25 -77 -32
-46 -14 -136 -67 -183 -109 -20 -17 -44 -31 -54 -31 -10 0 -23 -6 -29 -13 -6
-7 -39 -26 -74 -41 -35 -16 -70 -32 -78 -37 -8 -5 -28 -16 -45 -26 -16 -9 -57
-20 -90 -24 -33 -4 -79 -12 -101 -17 -27 -6 -48 -5 -60 1 -9 5 -31 10 -47 9
-47 -1 -125 43 -133 76 -4 15 -16 39 -28 55 -56 77 22 214 150 263 27 10 69
31 93 46 25 15 51 28 58 28 7 0 27 9 45 20 18 11 50 20 71 20 21 0 48 7 61 15
38 25 86 38 176 45 104 9 134 18 230 65 255 126 351 210 449 393 32 58 43 208
24 322 -12 75 -6 66 -134 197 l-51 52 18 31 c15 25 16 34 6 48 -7 9 -20 30
-30 47 -24 41 -151 173 -174 181 -20 6 -78 112 -78 143 0 11 -9 35 -20 53 -11
18 -20 48 -20 66 0 18 -9 50 -20 72 -11 22 -20 53 -20 70 0 17 -9 48 -20 70
-11 22 -20 54 -20 72 -1 81 -66 137 -142 122 -30 -6 -68 -51 -68 -81 0 -21
-25 -94 -45 -134 -8 -15 -15 -40 -15 -54 0 -14 -9 -43 -20 -65 -11 -22 -20
-48 -20 -59 0 -11 -6 -35 -14 -53 -8 -18 -20 -53 -27 -78 -7 -25 -26 -74 -42
-109 -24 -54 -27 -68 -17 -91 6 -15 13 -65 15 -111 2 -46 9 -118 15 -159 6
-41 14 -106 18 -145 4 -41 18 -94 34 -126 32 -71 28 -163 -11 -216 -30 -40
-124 -105 -148 -103 -46 5 -73 -2 -117 -31 -48 -32 -91 -47 -161 -56 -29 -4
-53 -17 -87 -49 -26 -25 -62 -47 -79 -51 -34 -6 -211 -196 -253 -269 -33 -60
-66 -144 -66 -171 0 -13 -9 -46 -21 -73 -33 -77 -17 -237 34 -337 15 -29 27
-58 27 -66 0 -24 157 -164 193 -171 172 -35 274 -48 382 -48 129 0 248 14 305
35 25 9 58 17 73 17 15 0 45 9 67 20 22 11 48 20 59 20 26 0 107 35 138 60 14
11 36 20 49 20 13 0 39 14 58 30 19 17 63 41 98 54 34 13 88 34 118 45 30 12
64 21 75 21 11 0 45 16 75 35 65 42 89 50 133 40 17 -4 69 -9 114 -12 80 -4
84 -4 127 27 38 28 47 30 66 20 29 -16 69 -9 155 25 39 15 93 31 120 35 28 4
64 12 81 18 22 7 41 6 70 -4 21 -8 48 -14 59 -14 11 0 38 -12 60 -25 50 -31
73 -31 115 0 41 30 59 31 109 5 44 -22 51 -35 51 -94 0 -58 27 -84 69 -66 24
9 37 9 66 -1 27 -10 42 -11 66 -2 29 11 33 10 74 -33 24 -24 47 -44 52 -44 5
0 28 -29 51 -64 36 -54 42 -72 42 -116 0 -29 7 -65 17 -83 18 -32 28 -106 41
-292 5 -71 12 -108 25 -127 15 -22 17 -33 8 -60 -6 -18 -13 -44 -16 -58 -7
-38 -82 -113 -103 -105 -52 22 -59 19 -101 -46 -35 -54 -41 -71 -41 -116 0
-49 -4 -57 -41 -98 -26 -28 -55 -49 -79 -55 -20 -5 -45 -19 -54 -29 -18 -19
-96 -54 -149 -66 -26 -5 -44 -21 -92 -78 -12 -13 -20 -15 -35 -7 -27 14 -82
12 -104 -5 -11 -8 -28 -13 -38 -9 -22 7 -51 -8 -112 -59 -37 -31 -57 -40 -79
-39 -18 2 -39 -5 -51 -16 -12 -11 -43 -30 -70 -43 -45 -22 -66 -41 -91 -84
-12 -20 -95 -36 -118 -23 -9 4 -45 64 -81 133 -60 113 -66 128 -60 165 12 72
-23 152 -71 164 -13 3 -38 26 -55 51 -17 25 -42 53 -56 61 -13 9 -27 28 -31
43 -8 33 -149 191 -171 191 -10 0 -32 9 -50 20 -18 11 -41 20 -50 20 -10 0
-44 20 -75 44 -96 74 -258 139 -354 142 -34 0 -68 5 -75 11 -27 20 -98 36
-142 31 -31 -4 -52 -1 -66 9 -15 11 -34 13 -68 9 -26 -4 -62 -6 -79 -6 -159 3
-261 -7 -333 -33 -25 -9 -67 -17 -94 -17 -56 0 -97 -11 -176 -47 -30 -14 -68
-27 -84 -29 -16 -2 -50 -16 -75 -30 -25 -15 -62 -28 -81 -30 -19 -1 -49 -6
-66 -9 -44 -10 -71 8 -84 54 -9 36 -50 111 -93 171 -9 13 -17 33 -17 44 0 32
-22 89 -49 125 -47 61 -66 87 -105 146 -72 108 -193 223 -332 315 -86 57 -107
72 -159 116 -27 23 -62 48 -77 55 -15 8 -45 42 -67 76 -22 35 -58 74 -82 90
-34 22 -51 46 -89 125 -48 97 -48 98 -43 180 3 57 11 91 23 108 10 14 21 46
25 70 4 25 20 74 36 109 16 35 29 69 29 75 0 6 14 31 30 55 26 38 30 53 30
112 0 58 4 72 26 98 34 41 46 87 49 193 1 48 8 100 14 116 10 23 11 309 2 507
-1 11 2 44 5 74 6 52 3 68 -30 176 -56 185 -85 245 -116 245 -9 0 -29 9 -43
20 -32 26 -118 28 -138 4 -20 -25 -39 -84 -39 -126 0 -20 -4 -47 -9 -60 -15
-38 -30 -101 -34 -139 -3 -20 -16 -56 -31 -81 -14 -25 -26 -56 -26 -70 0 -36
-53 -149 -84 -177 -14 -14 -26 -34 -26 -45 0 -12 -8 -33 -18 -47 -9 -14 -33
-50 -54 -80 -20 -30 -64 -81 -97 -114 -34 -33 -61 -68 -61 -78 0 -10 -21 -42
-48 -70 -63 -70 -88 -106 -95 -142 -3 -17 -12 -52 -18 -80 -15 -61 -16 -285
-3 -340 6 -22 23 -67 37 -99 15 -32 27 -65 27 -73 0 -21 32 -65 122 -165 80
-90 86 -108 46 -129 -16 -9 -28 -5 -63 20 -24 17 -52 31 -62 31 -40 0 -233 86
-248 110 -3 5 -20 10 -36 10 -34 0 -147 54 -155 74 -7 18 -105 92 -133 101
-12 3 -32 28 -46 55 -13 27 -36 65 -50 86 -14 20 -25 47 -25 60 0 32 -19 73
-53 113 -26 31 -28 38 -22 85 4 28 8 98 10 155 3 86 8 110 24 132 12 16 21 42
21 58 0 21 11 41 33 64 117 124 196 225 195 253 -1 47 27 90 75 113 40 19 49
31 91 117 35 70 46 103 41 123 -3 16 0 34 9 46 9 11 16 30 16 43 0 12 9 40 20
62 11 22 20 52 20 68 0 16 9 41 20 55 16 20 20 40 20 97 0 39 5 80 11 91 5 11
11 48 13 82 2 42 10 73 24 97 12 19 22 47 22 63 0 18 14 42 41 72 44 48 45 55
24 175 -5 26 1 53 24 109 17 41 31 82 31 93 0 33 28 75 57 86 55 20 113 80
113 118 0 39 69 123 125 151 16 9 51 35 77 59 25 24 59 46 75 50 15 4 45 15
65 25 21 11 51 19 67 19 17 0 46 11 66 24 19 13 61 32 93 41 31 9 66 20 77 25
11 4 30 3 43 -3 15 -7 30 -7 47 1 14 7 37 12 50 12 12 0 42 16 65 35 23 19 52
35 64 35 39 0 144 64 215 132 184 175 223 432 103 680 -29 60 -52 120 -52 135
-1 62 -47 167 -88 203 -52 45 -79 117 -63 169 12 43 20 85 29 168 4 34 15 70
23 80 16 18 23 39 38 120 4 23 15 53 24 67 9 14 17 40 17 59 0 21 12 51 33 82
17 27 39 61 47 76 8 15 27 37 41 48 15 11 30 32 33 46 7 27 51 55 87 55 12 0
30 7 40 16 19 17 66 31 141 43 26 4 51 11 55 15 4 4 46 5 93 2 47 -4 115 -8
152 -10z m-3132 -1661 c45 -38 79 -43 120 -20 63 36 142 10 176 -58 9 -18 32
-46 50 -63 45 -42 45 -75 1 -119 -19 -19 -47 -36 -63 -40 -16 -3 -43 -10 -60
-15 -17 -6 -37 -10 -45 -10 -8 0 -26 -13 -41 -30 -24 -27 -28 -28 -57 -17 -59
22 -74 -4 -49 -85 15 -52 -11 -113 -60 -136 -57 -27 -62 -47 -24 -81 18 -17
32 -40 32 -52 0 -13 12 -35 26 -50 61 -64 6 -176 -62 -124 -30 23 -58 18 -90
-16 -49 -52 -80 -63 -104 -39 -16 16 -18 25 -10 40 16 31 12 72 -11 97 l-22
22 -29 -24 c-47 -40 -96 0 -59 46 18 23 18 24 -13 68 -18 26 -35 51 -39 57 -4
7 3 24 14 38 30 38 14 116 -37 183 -40 52 -48 76 -35 102 6 11 11 39 11 63 1
62 20 90 82 115 47 19 55 20 75 7 63 -40 118 11 83 77 -16 28 40 84 73 74 55
-17 67 -17 93 4 33 26 24 27 74 -14z m6534 -3210 c3 -8 -6 -28 -19 -44 -42
-50 -31 -91 28 -105 36 -9 54 -47 39 -81 -7 -14 -12 -34 -12 -44 0 -10 -9 -30
-20 -44 -24 -30 -25 -59 -5 -91 21 -31 -3 -62 -84 -105 l-61 -32 -38 42 c-34
36 -41 40 -60 30 -18 -9 -25 -8 -42 9 -24 24 -18 39 30 85 31 29 32 32 30 110
-4 149 -2 162 30 198 17 19 30 42 30 51 0 24 27 73 42 78 18 6 104 -38 112
-57z m281 -2879 c31 -31 24 -51 -26 -77 l-39 -20 -25 25 c-30 30 -31 50 -5 76
27 27 66 25 95 -4z m-5570 -343 c15 -23 22 -25 62 -20 54 6 83 -16 83 -63 0
-33 -30 -70 -57 -70 -9 0 -31 -16 -49 -35 -36 -40 -48 -42 -69 -17 -9 9 -36
41 -61 70 l-45 53 22 37 c47 81 82 94 114 45z m-275 -273 c25 -14 44 -73 31
-98 -20 -37 -66 -47 -105 -23 -57 35 -56 50 8 100 44 35 41 34 66 21z m-1280
-1495 c47 -25 53 -102 10 -125 -28 -15 -78 13 -95 53 -16 38 -11 53 24 72 32
18 27 18 61 0z m280 -376 c14 -11 39 -28 55 -39 17 -10 38 -33 48 -50 23 -39
21 -42 -97 -164 -47 -49 -86 -92 -86 -97 0 -5 -13 -15 -29 -24 -41 -21 -91
-98 -91 -140 0 -41 -33 -120 -53 -128 -9 -3 -28 4 -42 15 -26 20 -28 20 -56 4
-32 -19 -38 -15 -97 63 -13 17 -30 31 -37 31 -67 0 -137 92 -113 146 11 23 9
28 -25 59 -20 19 -37 37 -37 40 0 5 27 57 49 95 5 8 14 27 20 42 7 18 20 30
38 33 43 9 58 20 59 44 2 34 20 45 69 42 24 -1 54 3 65 9 13 7 26 7 38 1 14
-8 31 -4 67 15 29 16 58 24 74 22 14 -3 40 -2 56 2 43 11 96 1 125 -21z m6231
-220 c59 -39 64 -49 35 -91 l-22 -33 23 -34 c26 -39 19 -62 -25 -85 -34 -17
-49 -12 -67 25 -14 27 -14 30 15 62 26 30 28 36 15 47 -12 10 -20 7 -45 -13
-19 -17 -37 -23 -51 -20 -16 4 -30 -4 -55 -31 -38 -42 -47 -43 -74 -16 -16 16
-18 25 -10 40 5 10 10 28 10 39 0 28 34 61 63 61 13 0 32 9 43 21 15 17 78 57
93 59 2 0 25 -14 52 -31z m-305 -224 c32 -43 -26 -83 -86 -59 -52 21 -67 47
-42 72 24 24 108 15 128 -13z m-856 -557 c67 3 113 -42 86 -83 -18 -28 -72
-59 -86 -50 -5 3 -27 -6 -49 -21 l-40 -26 -35 21 c-45 28 -49 42 -27 95 25 56
56 79 96 70 17 -4 41 -6 55 -6z M12311 4705 c-18 -8 -43 -15 -55 -15 -32 0
-64 -26 -86 -70 -26 -50 -74 -69 -119 -46 -38 20 -65 20 -82 0 -7 -8 -30 -24
-50 -35 -21 -10 -46 -31 -56 -45 -10 -15 -30 -38 -45 -53 -36 -33 -38 -88 -5
-118 34 -31 103 -63 137 -63 42 0 70 -31 70 -79 0 -32 6 -44 33 -66 52 -44 52
-51 8 -92 -35 -33 -40 -45 -45 -93 -3 -30 -8 -74 -12 -97 -5 -34 -2 -47 14
-68 17 -22 19 -31 10 -51 -8 -18 -8 -34 1 -62 13 -37 10 -155 -4 -235 -6 -30
-2 -47 16 -82 21 -39 22 -48 11 -78 -7 -18 -12 -64 -12 -101 0 -37 -4 -76 -10
-86 -7 -14 -4 -29 15 -61 21 -39 23 -46 11 -65 -22 -33 -41 -368 -23 -405 6
-12 -1 -27 -22 -52 -34 -38 -41 -85 -19 -132 9 -19 8 -35 -1 -67 -23 -77 -28
-84 -100 -139 -68 -51 -128 -129 -116 -150 3 -4 26 -22 51 -38 57 -39 150 -44
214 -11 63 32 115 25 167 -22 18 -17 31 -19 95 -14 96 7 95 7 152 0 48 -6 70
-2 187 37 30 11 78 19 106 19 60 0 83 20 83 73 0 35 -35 77 -64 77 -13 0 -162
90 -188 114 -11 10 -18 30 -18 53 0 43 -13 87 -46 161 -15 33 -24 71 -24 103
0 28 -5 59 -11 70 -6 12 -12 46 -14 77 -2 31 -7 71 -11 88 -4 22 0 44 15 72
22 43 30 172 12 201 -5 8 -1 33 11 65 30 77 31 82 19 105 -9 17 -6 26 18 54
l30 33 -3 265 c-2 145 -4 273 -4 284 0 11 2 73 4 137 4 95 2 122 -10 139 -14
20 -13 26 9 64 21 35 25 55 25 124 l0 82 -55 65 c-54 64 -55 66 -55 129 0 59
-2 65 -30 85 -39 28 -87 34 -129 15z M20047 4654 c-3 -4 -43 -8 -89 -9 -46 -2
-110 -8 -143 -14 -33 -7 -78 -14 -99 -18 -22 -3 -53 -14 -70 -24 -17 -10 -39
-19 -49 -19 -68 0 -101 -84 -52 -130 14 -13 31 -44 37 -68 12 -48 66 -92 112
-92 59 0 95 -46 70 -90 -15 -29 -19 -206 -5 -229 19 -30 -46 -119 -99 -136
-11 -3 -41 2 -67 11 -112 40 -358 54 -441 25 -32 -12 -69 -21 -82 -21 -13 0
-37 -4 -54 -9 -17 -5 -51 -15 -76 -22 -95 -25 -116 -34 -145 -60 -16 -15 -56
-39 -87 -53 -39 -18 -73 -45 -105 -83 -26 -30 -64 -72 -85 -92 -20 -20 -47
-61 -60 -91 -14 -30 -36 -68 -50 -85 -31 -38 -59 -106 -69 -170 -4 -27 -13
-70 -19 -95 -6 -25 -15 -67 -18 -95 -4 -27 -11 -56 -16 -63 -14 -24 -8 -409 8
-440 8 -15 12 -39 9 -53 -6 -33 28 -101 78 -156 22 -24 39 -47 39 -52 0 -4 36
-45 80 -89 72 -74 89 -84 142 -91 3 -1 15 -17 27 -36 11 -20 28 -35 39 -35 10
0 36 -13 58 -30 34 -26 48 -29 105 -30 57 0 70 -4 107 -31 36 -27 48 -30 80
-24 20 3 82 8 137 11 55 2 112 9 127 15 19 8 32 8 46 0 37 -20 86 -13 113 15
57 62 145 73 212 27 47 -33 107 -44 254 -48 61 -2 121 -8 132 -14 11 -6 35
-11 55 -11 21 0 45 -9 63 -23 15 -13 48 -29 73 -35 50 -12 64 -6 83 39 7 16
37 45 67 66 50 35 55 42 58 81 2 31 -2 49 -17 69 -12 14 -21 36 -21 48 0 12
-12 32 -26 46 -35 32 -64 91 -64 129 0 17 -9 44 -21 59 -17 24 -19 32 -9 50
18 34 10 170 -12 206 -34 56 -22 103 35 138 40 25 39 96 -2 143 -26 30 -28 36
-19 62 10 25 8 34 -10 57 l-22 28 20 34 c24 41 26 90 4 114 -9 10 -18 39 -21
65 -2 25 -8 54 -13 64 -7 13 -4 24 10 43 29 36 25 89 -9 158 l-30 58 20 25
c28 36 28 105 -1 144 -17 23 -21 38 -16 64 4 18 8 44 11 58 2 14 13 44 24 67
12 23 21 51 21 62 0 11 5 31 11 45 15 32 -1 76 -46 127 -30 33 -31 39 -25 87
6 45 12 56 53 92 51 45 57 63 30 93 -11 12 -20 42 -23 80 -3 39 -10 62 -20 67
-156 77 -231 106 -243 94z m-505 -1055 c10 -5 26 -22 35 -37 9 -15 30 -42 45
-60 15 -18 28 -44 28 -57 0 -41 45 -128 84 -162 44 -38 45 -52 6 -96 -37 -43
-41 -108 -10 -159 12 -20 20 -51 20 -76 0 -24 5 -52 10 -63 9 -16 4 -25 -30
-57 l-42 -38 5 -90 c3 -49 8 -105 12 -125 6 -31 3 -41 -24 -71 -25 -29 -31
-44 -31 -82 0 -78 -51 -106 -132 -72 -38 16 -60 10 -115 -34 -34 -27 -107 -27
-151 0 -18 11 -37 20 -43 20 -6 0 -34 11 -62 24 -29 13 -71 28 -94 35 -46 13
-73 42 -74 81 0 14 -16 45 -35 70 -40 54 -116 165 -135 200 -26 48 -37 185
-22 284 8 47 15 64 40 85 46 39 76 104 62 134 -15 33 1 60 51 92 25 16 40 33
40 46 0 40 134 159 180 159 7 0 31 14 55 31 36 26 49 30 77 25 83 -18 117 -18
140 -2 24 17 73 15 110 -5z M13990 3925 c-28 -15 -62 -24 -91 -25 -28 0 -51
-6 -59 -15 -6 -8 -22 -17 -33 -20 -12 -4 -40 -15 -62 -25 -22 -10 -65 -29 -95
-41 -76 -32 -146 -92 -176 -150 -24 -49 -35 -55 -98 -61 -16 -2 -33 -10 -37
-18 -27 -50 -100 -213 -114 -254 -8 -26 -21 -58 -28 -70 -15 -27 -26 -140 -33
-336 -6 -163 1 -211 38 -259 10 -13 18 -36 18 -51 0 -36 45 -118 81 -150 28
-24 69 -115 69 -152 0 -9 12 -25 26 -35 15 -10 44 -37 66 -59 22 -24 52 -44
69 -48 35 -7 82 -52 110 -108 23 -45 46 -62 124 -89 32 -11 80 -31 106 -45 53
-26 122 -32 174 -13 26 10 41 8 91 -10 83 -29 222 -30 289 -1 26 11 64 20 85
20 22 0 43 6 51 16 21 26 66 44 107 44 41 0 64 16 119 83 14 18 31 27 51 27
35 0 77 31 99 73 26 52 102 131 147 152 51 25 95 87 96 136 0 21 9 47 20 62
11 14 20 37 20 51 0 14 13 41 30 59 34 39 37 68 14 122 -14 33 -14 39 1 61 27
42 12 374 -23 494 -6 19 -16 52 -22 72 -6 21 -29 58 -50 84 -22 25 -40 53 -40
63 0 16 -47 63 -196 196 -52 46 -61 50 -122 57 -106 10 -184 27 -217 48 -49
30 -116 50 -173 50 -33 0 -68 8 -92 20 -26 13 -59 20 -97 20 -39 0 -78 8 -118
25 -73 30 -69 30 -125 0z m369 -286 c24 -14 45 -19 66 -16 17 3 41 0 53 -7 25
-13 72 -74 72 -93 0 -23 90 -153 136 -197 54 -53 68 -86 47 -115 -11 -16 -13
-34 -8 -64 7 -45 10 -154 6 -202 -4 -32 2 -69 20 -127 10 -32 9 -41 -10 -73
-12 -21 -21 -53 -21 -78 0 -81 -47 -184 -88 -193 -61 -15 -95 -70 -71 -116 25
-47 -52 -138 -119 -138 -50 0 -102 -20 -141 -53 -40 -33 -38 -33 -87 2 -21 16
-55 31 -74 34 -85 13 -126 26 -135 43 -23 41 -122 137 -169 162 -49 27 -52 30
-113 154 -8 15 -11 37 -8 50 3 13 -3 47 -14 75 -16 43 -17 59 -8 82 7 20 8 36
1 52 -9 19 -5 36 18 86 32 72 34 83 13 124 -15 27 -14 33 5 77 12 26 32 58 44
72 30 32 46 63 46 90 0 12 11 43 24 69 13 25 29 62 36 81 33 91 133 170 216
170 16 0 49 9 73 20 24 11 55 20 70 20 14 1 37 7 51 15 32 18 29 19 69 -6z
M17265 3877 c-27 -30 -54 -49 -81 -56 -79 -21 -108 -50 -114 -111 -3 -30 -1
-73 4 -95 5 -22 8 -59 8 -82 -1 -24 -2 -55 -2 -70 -1 -56 13 -138 26 -157 11
-16 11 -25 -1 -54 -22 -50 -19 -74 17 -147 l32 -65 -19 -48 c-13 -33 -21 -83
-25 -167 -3 -77 -11 -133 -21 -155 -10 -22 -16 -64 -17 -107 0 -39 -5 -80 -11
-91 -6 -11 -11 -33 -11 -49 0 -57 -55 -105 -93 -80 -46 29 -93 26 -195 -14
-44 -17 -164 -11 -200 11 -18 11 -39 20 -47 20 -33 0 -56 39 -50 83 5 33 2 48
-13 67 -46 60 -54 89 -53 197 1 86 -3 111 -19 143 -11 22 -20 48 -20 59 0 11
-5 32 -12 46 -10 22 -7 34 21 92 30 59 32 70 23 102 -6 20 -14 48 -17 64 -3
15 -7 39 -10 55 -3 15 -11 43 -17 63 -9 31 -7 42 18 90 17 31 32 80 36 114 22
180 23 163 -14 204 -19 20 -46 55 -61 78 l-26 42 -88 5 c-48 3 -121 8 -161 12
-56 4 -78 2 -90 -8 -59 -50 -108 -68 -241 -87 -63 -9 -86 -31 -96 -92 -8 -48
30 -101 66 -92 11 3 36 -5 58 -20 33 -22 42 -36 65 -109 26 -80 27 -90 21
-213 -18 -336 -18 -371 5 -414 21 -43 21 -33 21 -375 0 -133 5 -157 50 -215
11 -13 19 -32 19 -42 0 -10 14 -40 30 -66 17 -26 30 -54 30 -63 0 -9 18 -33
40 -55 l40 -39 35 17 c45 21 63 13 102 -45 21 -32 36 -44 58 -46 17 -2 56 -12
88 -24 39 -13 70 -18 90 -13 18 3 57 10 87 15 30 5 78 14 105 20 28 7 95 16
150 20 132 11 165 18 198 46 15 13 33 21 40 18 7 -2 29 2 49 11 46 19 60 13
92 -35 22 -33 31 -39 73 -43 26 -3 62 -9 80 -12 25 -6 38 -2 59 14 15 12 35
21 46 21 11 0 29 5 40 11 12 6 60 11 108 10 69 -1 90 2 100 14 23 27 67 45
113 45 52 0 77 22 77 67 0 39 -28 63 -74 63 -26 0 -43 7 -59 24 -94 101 -127
175 -106 239 10 30 10 46 1 69 -8 22 -8 36 -1 50 11 20 9 42 -11 133 -6 28
-10 58 -9 68 1 19 2 277 0 305 -3 56 18 212 33 241 13 25 16 45 11 80 -8 58
-8 111 0 178 6 44 4 57 -14 79 -17 22 -21 41 -21 109 0 85 -20 125 -62 125 -8
0 -26 8 -39 19 -24 19 -62 28 -154 37 -49 5 -51 5 -90 -39z M10234 3874 c-20
-29 -63 -54 -95 -54 -12 0 -41 -18 -65 -40 -24 -22 -53 -40 -65 -40 -14 0 -48
-26 -93 -74 -39 -40 -85 -80 -101 -89 -43 -21 -131 -118 -151 -164 -42 -100
-67 -151 -89 -183 -72 -105 -133 -465 -97 -569 11 -32 10 -35 -23 -66 -31 -27
-35 -37 -35 -79 0 -59 29 -106 66 -106 24 0 68 -35 60 -48 -2 -4 -7 -23 -10
-43 -7 -46 12 -66 43 -49 47 25 93 -32 65 -80 -15 -24 -16 -33 -6 -55 7 -14
12 -36 12 -49 0 -24 28 -56 49 -56 8 0 29 14 48 30 39 35 68 29 79 -18 13 -55
31 -72 77 -72 23 0 65 -8 93 -19 34 -12 57 -15 68 -9 10 5 23 5 35 -2 11 -5
42 -10 70 -10 28 0 70 -9 98 -21 36 -15 59 -19 93 -14 52 7 56 7 219 -1 138
-6 169 1 214 49 20 21 32 27 45 21 9 -4 47 -10 83 -12 71 -4 82 3 162 97 9 12
28 21 42 21 15 0 31 10 42 26 10 14 46 53 81 86 34 34 62 67 62 74 0 7 14 29
30 47 28 33 30 39 30 120 0 56 -4 88 -12 95 -7 5 -61 10 -119 11 l-106 1 -42
-37 c-37 -33 -46 -50 -50 -85 -2 -21 -43 -29 -66 -14 -38 25 -68 19 -139 -29
-38 -25 -79 -45 -94 -45 -15 0 -33 -4 -40 -9 -8 -5 -31 -2 -55 7 -46 16 -93
27 -210 46 -43 7 -82 17 -87 22 -35 37 -120 161 -120 175 0 10 -16 34 -36 54
-41 41 -94 161 -94 212 0 25 -10 44 -42 79 -42 45 -42 46 -43 127 -1 45 -5 92
-9 104 -10 28 24 63 63 63 44 0 61 35 65 131 2 50 47 114 106 150 17 11 33 26
37 35 6 17 121 74 148 74 9 0 29 10 45 21 26 19 32 20 59 9 19 -7 47 -10 74
-6 52 8 76 -7 86 -54 5 -26 20 -44 56 -72 27 -20 57 -52 66 -70 9 -18 26 -42
38 -52 12 -11 26 -36 31 -56 14 -54 136 -159 199 -173 96 -22 91 -23 169 48
93 86 102 103 103 211 l1 87 -41 37 c-30 28 -41 45 -41 67 0 41 -55 93 -98 93
-24 0 -44 11 -76 40 -31 29 -52 40 -74 40 -20 0 -43 10 -65 30 -31 26 -42 30
-97 30 -45 0 -73 6 -101 22 l-39 22 -39 -22 c-37 -21 -39 -21 -62 -4 -41 31
-105 47 -134 34 -38 -17 -69 -15 -98 8 -40 32 -131 28 -153 -6z"/>
</g>
</svg>
