<?xml version="1.0" encoding="UTF-8"?>
<svg width="375px" height="72px" viewBox="0 0 375 72" version="1.1" xmlns="http://www.w3.org/2000/svg" xmlns:xlink="http://www.w3.org/1999/xlink">
    <!-- Generator: Sketch 59.1 (86144) - https://sketch.com -->
    <title>logo H 1440</title>
    <desc>Created with Sketch.</desc>
    <g id="logo-H-1440" stroke="none" stroke-width="1" fill="none" fill-rule="evenodd">
        <g>
            <rect id="bounds" x="2.27373675e-13" y="0" width="375" height="72"></rect>
            <path d="M354.003,48.117 L360.204,48.117 L363.285,32.361 L365.898,32.361 C367.653,32.361 368.706,33.492 368.706,35.364 L368.706,42.657 L363.987,42.657 L363.987,48 L374.673,48 L374.673,34.896 C374.673,30.021 371.709,27.096 366.717,27.096 L358.332,27.096 L354.51,26.472 L353.652,31.659 L357.24,32.322 L354.003,48.117 Z M344.136,48 L350.103,48 L350.103,27.096 L340.938,27.096 L340.938,32.439 L344.136,32.439 L344.136,48 Z M330.486,48 L336.453,48 L333.723,32.439 L338.013,32.439 L338.013,27.096 L324.753,27.096 L324.753,32.439 L327.756,32.439 L330.486,48 Z M315.237,40.512 L321.243,40.512 L321.243,27.096 L312.078,27.096 L312.078,32.439 L315.237,32.439 L315.237,40.512 Z M303.498,48.819 L308.958,46.752 L303.849,38.328 C306.852,37.119 308.256,35.169 308.451,31.854 L308.724,27.096 L302.523,27.096 C302.406,28.656 302.328,31.386 302.133,32.595 C301.938,33.882 301.275,34.584 300.105,34.974 L294.606,26.238 L289.146,28.773 L293.202,35.637 C290.979,37.002 289.887,38.991 289.614,41.916 L289.571877,42.4893457 C289.4775,43.9007344 289.40925,45.816 289.341,48 L295.425,48 L295.464,46.565736 C295.50768,44.66004 295.5264,42.8442 295.62,41.877 C295.776,40.239 296.283,39.381 297.375,38.835 L303.498,48.819 Z M279.786,48 L285.753,48 L285.753,27.096 L276.588,27.096 L276.588,32.439 L279.786,32.439 L279.786,48 Z M267.228,52.68 L273.117,52.68 L273.117,27.096 L263.211,27.096 L263.211,32.439 L267.228,32.439 L267.228,52.68 Z M233.415,48.39 C237.588,48.39 240.162,46.869 240.162,41.994 L240.162,32.439 L244.686,32.439 C245.856,32.439 246.597,33.258 246.597,34.584 L246.597,48 L252.525,48 L252.525,33.843 C252.525,29.631 250.029,27.096 245.778,27.096 L230.139,27.096 L230.139,32.439 L234.234,32.439 L234.234,41.175 C234.234,42.657 233.376,43.086 232.011,43.086 C231.465,43.086 230.841,43.047 230.139,42.93 L230.139,48.078 C231.309,48.273 232.401,48.39 233.415,48.39 Z M215.085,48 L221.442,48 L227.019,31.893 L227.019,27.096 L216.762,27.096 L216.762,21.168 L210.834,21.168 L210.834,32.439 L220.506,32.439 L215.085,48 Z M195.429,48.819 L200.889,46.752 L195.78,38.328 C198.783,37.119 200.187,35.169 200.382,31.854 L200.655,27.096 L194.454,27.096 C194.337,28.656 194.259,31.386 194.064,32.595 C193.869,33.882 193.206,34.584 192.036,34.974 L186.537,26.238 L181.077,28.773 L185.133,35.637 C182.91,37.002 181.818,38.991 181.545,41.916 L181.502877,42.4893457 C181.4085,43.9007344 181.34025,45.816 181.272,48 L187.356,48 L187.395,46.565736 C187.43868,44.66004 187.4574,42.8442 187.551,41.877 C187.707,40.239 188.214,39.381 189.306,38.835 L195.429,48.819 Z M159.549,48 L178.542,48 L178.542,42.657 L175.812,42.657 L175.812,33.843 C175.812,29.631 173.277,27.096 169.065,27.096 L160.329,27.096 L160.329,32.439 L168.051,32.439 C169.182,32.439 169.884,33.219 169.884,34.467 L169.884,42.657 L159.549,42.657 L159.549,48 Z M150.033,40.512 L156.039,40.512 L156.039,27.096 L146.874,27.096 L146.874,32.439 L150.033,32.439 L150.033,40.512 Z M127.179,48 L146.172,48 L146.172,42.657 L143.442,42.657 L143.442,33.843 C143.442,29.631 140.907,27.096 136.695,27.096 L127.959,27.096 L127.959,32.439 L135.681,32.439 C136.812,32.439 137.514,33.219 137.514,34.467 L137.514,42.657 L127.179,42.657 L127.179,48 Z M104.715,48 L111.072,48 L116.649,31.893 L116.649,27.096 L106.392,27.096 L106.392,21.168 L100.464,21.168 L100.464,32.439 L110.136,32.439 L104.715,48 Z M91.923,48.819 L97.383,46.752 L92.274,38.328 C95.277,37.119 96.681,35.169 96.876,31.854 L97.149,27.096 L90.948,27.096 C90.831,28.656 90.753,31.386 90.558,32.595 C90.363,33.882 89.7,34.584 88.53,34.974 L83.031,26.238 L77.571,28.773 L81.627,35.637 C79.404,37.002 78.312,38.991 78.039,41.916 L77.996877,42.4893457 C77.9025,43.9007344 77.83425,45.816 77.766,48 L83.85,48 L83.889,46.565736 C83.93268,44.66004 83.9514,42.8442 84.045,41.877 C84.201,40.239 84.708,39.381 85.8,38.835 L91.923,48.819 Z M53.391,48.117 L59.592,48.117 L62.673,32.361 L65.286,32.361 C67.041,32.361 68.094,33.492 68.094,35.364 L68.094,42.657 L63.375,42.657 L63.375,48 L74.061,48 L74.061,34.896 C74.061,30.021 71.097,27.096 66.105,27.096 L57.72,27.096 L53.898,26.472 L53.04,31.659 L56.628,32.322 L53.391,48.117 Z M37.791,48 L49.491,48 L49.491,27.096 L39.156,27.096 L39.156,32.439 L43.524,32.439 L43.524,42.657 L37.791,42.657 L37.791,48 Z M28.509,48 L34.476,48 L34.476,27.096 L25.311,27.096 L25.311,32.439 L28.509,32.439 L28.509,48 Z M3.276,48.39 C2.262,48.39 1.17,48.273 2.84217094e-14,48.078 L2.84217094e-14,42.93 C0.702,43.047 1.326,43.086 1.872,43.086 C3.237,43.086 4.095,42.657 4.095,41.175 L4.095,32.439 L2.84217094e-14,32.439 L2.84217094e-14,27.096 L15.639,27.096 C19.89,27.096 22.386,29.631 22.386,33.843 L22.386,48 L16.458,48 L16.458,34.584 C16.458,33.258 15.717,32.439 14.547,32.439 L10.023,32.439 L10.023,41.994 C10.023,46.869 7.449,48.39 3.276,48.39 Z" id="מוזיאוןתלאביבלאמנות" fill="#22242A" fill-rule="nonzero" transform="translate(187.336500, 36.924000) rotate(-360.000000) translate(-187.336500, -36.924000) "></path>
        </g>
    </g>
</svg>